<svg width="73" height="68" viewBox="0 0 73 68" fill="none" xmlns="http://www.w3.org/2000/svg">
<path d="M48.7047 65.2375H24.2953C23.839 65.2375 23.3828 64.9187 23.3828 64.3875C23.3828 63.9625 23.725 63.5375 24.2953 63.5375H48.7047C49.1609 63.5375 49.6172 63.9625 49.6172 64.3875C49.6172 64.9187 49.1609 65.2375 48.7047 65.2375ZM53.2672 38.0375V42.7125H58.2859V38.0375H53.2672ZM36.7281 22.7375V30.9188H59.1984V22.7375H36.7281ZM36.7281 22.7375V30.9188H59.1984V22.7375H36.7281ZM53.2672 38.0375V42.7125H58.2859V38.0375H53.2672ZM27.489 38.0375V42.7125H32.5078V38.0375H27.489ZM40.3781 38.0375V42.7125H45.3969V38.0375H40.3781ZM53.2672 38.0375V42.7125H58.2859V38.0375H53.2672ZM36.7281 22.7375V30.9188H59.1984V22.7375H36.7281ZM36.7281 22.7375V30.9188H59.1984V22.7375H36.7281ZM53.2672 38.0375V42.7125H58.2859V38.0375H53.2672ZM40.3781 38.0375V42.7125H45.3969V38.0375H40.3781ZM27.489 38.0375V42.7125H32.5078V38.0375H27.489ZM14.6 38.0375V42.7125H19.6187V38.0375H14.6ZM14.6 48.7688V53.4437H19.6187V48.7688H14.6ZM27.489 38.0375V42.7125H32.5078V38.0375H27.489ZM40.3781 38.0375V42.7125H45.3969V38.0375H40.3781ZM53.2672 38.0375V42.7125H58.2859V38.0375H53.2672ZM36.7281 22.7375V30.9188H59.1984V22.7375H36.7281ZM36.7281 22.7375V30.9188H59.1984V22.7375H36.7281ZM53.2672 38.0375V42.7125H58.2859V38.0375H53.2672ZM40.3781 38.0375V42.7125H45.3969V38.0375H40.3781ZM27.489 38.0375V42.7125H32.5078V38.0375H27.489ZM14.6 38.0375V42.7125H19.6187V38.0375H14.6ZM14.6 48.7688V53.4437H19.6187V48.7688H14.6ZM14.6 38.0375V42.7125H19.6187V38.0375H14.6ZM14.6 48.7688V53.4437H19.6187V48.7688H14.6ZM27.489 38.0375V42.7125H32.5078V38.0375H27.489ZM27.489 48.7688V53.4437H32.5078V48.7688H27.489ZM40.3781 38.0375V42.7125H45.3969V38.0375H40.3781ZM40.3781 48.7688V53.4437H45.3969V48.7688H40.3781ZM53.2672 38.0375V42.7125H58.2859V38.0375H53.2672ZM36.7281 22.7375V30.9188H59.1984V22.7375H36.7281ZM36.7281 22.7375V30.9188H59.1984V22.7375H36.7281ZM53.2672 38.0375V42.7125H58.2859V38.0375H53.2672ZM40.3781 38.0375V42.7125H45.3969V38.0375H40.3781ZM40.3781 48.7688V53.4437H45.3969V48.7688H40.3781ZM27.489 38.0375V42.7125H32.5078V38.0375H27.489ZM27.489 48.7688V53.4437H32.5078V48.7688H27.489ZM14.6 38.0375V42.7125H19.6187V38.0375H14.6ZM14.6 48.7688V53.4437H19.6187V48.7688H14.6ZM14.6 38.0375V42.7125H19.6187V38.0375H14.6ZM14.6 48.7688V53.4437H19.6187V48.7688H14.6ZM27.489 38.0375V42.7125H32.5078V38.0375H27.489ZM27.489 48.7688V53.4437H32.5078V48.7688H27.489ZM40.3781 38.0375V42.7125H45.3969V38.0375H40.3781ZM40.3781 48.7688V53.4437H45.3969V48.7688H40.3781ZM53.2672 38.0375V42.7125H58.2859V38.0375H53.2672ZM53.2672 48.7688V53.4437H58.2859V48.7688H53.2672ZM36.7281 22.7375V30.9188H59.1984V22.7375H36.7281ZM36.7281 22.7375V30.9188H59.1984V22.7375H36.7281ZM53.2672 38.0375V42.7125H58.2859V38.0375H53.2672ZM53.2672 48.7688V53.4437H58.2859V48.7688H53.2672ZM40.3781 38.0375V42.7125H45.3969V38.0375H40.3781ZM40.3781 48.7688V53.4437H45.3969V48.7688H40.3781ZM27.489 38.0375V42.7125H32.5078V38.0375H27.489ZM27.489 48.7688V53.4437H32.5078V48.7688H27.489ZM14.6 38.0375V42.7125H19.6187V38.0375H14.6ZM14.6 48.7688V53.4437H19.6187V48.7688H14.6ZM14.6 38.0375V42.7125H19.6187V38.0375H14.6ZM14.6 48.7688V53.4437H19.6187V48.7688H14.6ZM27.489 38.0375V42.7125H32.5078V38.0375H27.489ZM27.489 48.7688V53.4437H32.5078V48.7688H27.489ZM40.3781 38.0375V42.7125H45.3969V38.0375H40.3781ZM40.3781 48.7688V53.4437H45.3969V48.7688H40.3781ZM53.2672 38.0375V42.7125H58.2859V38.0375H53.2672ZM53.2672 48.7688V53.4437H58.2859V48.7688H53.2672ZM36.7281 22.7375V30.9188H59.1984V22.7375H36.7281ZM36.7281 22.7375V30.9188H59.1984V22.7375H36.7281ZM53.2672 38.0375V42.7125H58.2859V38.0375H53.2672ZM53.2672 48.7688V53.4437H58.2859V48.7688H53.2672ZM40.3781 38.0375V42.7125H45.3969V38.0375H40.3781ZM40.3781 48.7688V53.4437H45.3969V48.7688H40.3781ZM27.489 38.0375V42.7125H32.5078V38.0375H27.489ZM27.489 48.7688V53.4437H32.5078V48.7688H27.489ZM14.6 38.0375V42.7125H19.6187V38.0375H14.6ZM14.6 48.7688V53.4437H19.6187V48.7688H14.6ZM64.9015 22.525C64.6734 20.1875 62.2781 18.275 59.4265 18.275H29.0859C28.4015 18.275 27.9453 18.8063 27.9453 19.3375V30.7062C27.9453 31.1313 27.489 31.5563 27.0328 31.5563H13.3453C12.889 31.5563 12.4328 31.1313 12.4328 30.7062V19.975C12.4328 19.125 11.4062 18.5938 10.6078 19.0187C9.23904 19.7625 8.21248 21.0375 8.09841 22.525L5.13279 58.0125C5.13279 58.65 5.58904 59.1813 6.27341 59.1813H66.6125C67.2969 59.1813 67.8672 58.65 67.7531 58.0125L64.9015 22.525ZM21.4437 54.2937C21.4437 54.7188 21.1015 55.1438 20.5312 55.1438H13.6875C13.2312 55.1438 12.775 54.7188 12.775 54.2937V47.9187C12.775 47.4937 13.2312 47.0687 13.6875 47.0687H20.5312C20.9875 47.0687 21.4437 47.4937 21.4437 47.9187V54.2937ZM21.4437 43.5625C21.4437 43.9875 21.1015 44.4125 20.5312 44.4125H13.6875C13.2312 44.4125 12.775 43.9875 12.775 43.5625V37.1875C12.775 36.7625 13.2312 36.3375 13.6875 36.3375H20.5312C20.9875 36.3375 21.4437 36.7625 21.4437 37.1875V43.5625ZM34.3328 54.2937C34.3328 54.7188 33.9906 55.1438 33.4203 55.1438H26.5765C26.1203 55.1438 25.664 54.7188 25.664 54.2937V47.9187C25.664 47.4937 26.1203 47.0687 26.5765 47.0687H33.4203C33.8765 47.0687 34.3328 47.4937 34.3328 47.9187V54.2937ZM34.3328 43.5625C34.3328 43.9875 33.9906 44.4125 33.4203 44.4125H26.5765C26.1203 44.4125 25.664 43.9875 25.664 43.5625V37.1875C25.664 36.7625 26.1203 36.3375 26.5765 36.3375H33.4203C33.8765 36.3375 34.3328 36.7625 34.3328 37.1875V43.5625ZM47.2219 54.2937C47.2219 54.7188 46.8797 55.1438 46.3093 55.1438H39.4656C39.0093 55.1438 38.5531 54.7188 38.5531 54.2937V47.9187C38.5531 47.4937 39.0093 47.0687 39.4656 47.0687H46.3093C46.7656 47.0687 47.2219 47.4937 47.2219 47.9187V54.2937ZM47.2219 43.5625C47.2219 43.9875 46.8797 44.4125 46.3093 44.4125H39.4656C39.0093 44.4125 38.5531 43.9875 38.5531 43.5625V37.1875C38.5531 36.7625 39.0093 36.3375 39.4656 36.3375H46.3093C46.7656 36.3375 47.2219 36.7625 47.2219 37.1875V43.5625ZM60.225 54.2937C60.225 54.7188 59.8828 55.1438 59.3125 55.1438H52.4687C52.0125 55.1438 51.5562 54.7188 51.5562 54.2937V47.9187C51.5562 47.4937 52.0125 47.0687 52.4687 47.0687H59.3125C59.7687 47.0687 60.225 47.4937 60.225 47.9187V54.2937ZM60.225 43.5625C60.225 43.9875 59.8828 44.4125 59.3125 44.4125H52.4687C52.0125 44.4125 51.5562 43.9875 51.5562 43.5625V37.1875C51.5562 36.7625 52.0125 36.3375 52.4687 36.3375H59.3125C59.7687 36.3375 60.225 36.7625 60.225 37.1875V43.5625ZM61.0234 31.7687C61.0234 32.1937 60.6812 32.6188 60.1109 32.6188H35.8156C35.3594 32.6188 34.9031 32.1937 34.9031 31.7687V21.8875C34.9031 21.4625 35.3594 21.0375 35.8156 21.0375H60.1109C60.5672 21.0375 61.0234 21.3563 61.0234 21.8875V31.7687ZM36.7281 30.9188H59.1984V22.7375H36.7281V30.9188ZM53.2672 53.4437H58.2859V48.7688H53.2672V53.4437ZM53.2672 42.7125H58.2859V38.0375H53.2672V42.7125ZM40.3781 53.4437H45.3969V48.7688H40.3781V53.4437ZM40.3781 42.7125H45.3969V38.0375H40.3781V42.7125ZM27.489 53.4437H32.5078V48.7688H27.489V53.4437ZM27.489 42.7125H32.5078V38.0375H27.489V42.7125ZM14.6 53.4437H19.6187V48.7688H14.6V53.4437ZM14.6 42.7125H19.6187V38.0375H14.6V42.7125ZM14.6 48.7688V53.4437H19.6187V48.7688H14.6ZM14.6 38.0375V42.7125H19.6187V38.0375H14.6ZM27.489 48.7688V53.4437H32.5078V48.7688H27.489ZM27.489 38.0375V42.7125H32.5078V38.0375H27.489ZM40.3781 48.7688V53.4437H45.3969V48.7688H40.3781ZM40.3781 38.0375V42.7125H45.3969V38.0375H40.3781ZM53.2672 48.7688V53.4437H58.2859V48.7688H53.2672ZM53.2672 38.0375V42.7125H58.2859V38.0375H53.2672ZM36.7281 22.7375V30.9188H59.1984V22.7375H36.7281ZM36.7281 22.7375V30.9188H59.1984V22.7375H36.7281ZM53.2672 48.7688V53.4437H58.2859V48.7688H53.2672ZM53.2672 38.0375V42.7125H58.2859V38.0375H53.2672ZM40.3781 48.7688V53.4437H45.3969V48.7688H40.3781ZM40.3781 38.0375V42.7125H45.3969V38.0375H40.3781ZM27.489 48.7688V53.4437H32.5078V48.7688H27.489ZM27.489 38.0375V42.7125H32.5078V38.0375H27.489ZM14.6 48.7688V53.4437H19.6187V48.7688H14.6ZM14.6 38.0375V42.7125H19.6187V38.0375H14.6ZM14.6 48.7688V53.4437H19.6187V48.7688H14.6ZM14.6 38.0375V42.7125H19.6187V38.0375H14.6ZM27.489 48.7688V53.4437H32.5078V48.7688H27.489ZM27.489 38.0375V42.7125H32.5078V38.0375H27.489ZM40.3781 48.7688V53.4437H45.3969V48.7688H40.3781ZM40.3781 38.0375V42.7125H45.3969V38.0375H40.3781ZM53.2672 48.7688V53.4437H58.2859V48.7688H53.2672ZM53.2672 38.0375V42.7125H58.2859V38.0375H53.2672ZM36.7281 22.7375V30.9188H59.1984V22.7375H36.7281ZM36.7281 22.7375V30.9188H59.1984V22.7375H36.7281ZM53.2672 48.7688V53.4437H58.2859V48.7688H53.2672ZM53.2672 38.0375V42.7125H58.2859V38.0375H53.2672ZM40.3781 48.7688V53.4437H45.3969V48.7688H40.3781ZM40.3781 38.0375V42.7125H45.3969V38.0375H40.3781ZM27.489 48.7688V53.4437H32.5078V48.7688H27.489ZM27.489 38.0375V42.7125H32.5078V38.0375H27.489ZM14.6 48.7688V53.4437H19.6187V48.7688H14.6ZM14.6 38.0375V42.7125H19.6187V38.0375H14.6ZM14.6 48.7688V53.4437H19.6187V48.7688H14.6ZM14.6 38.0375V42.7125H19.6187V38.0375H14.6ZM27.489 48.7688V53.4437H32.5078V48.7688H27.489ZM27.489 38.0375V42.7125H32.5078V38.0375H27.489ZM40.3781 38.0375V42.7125H45.3969V38.0375H40.3781ZM53.2672 38.0375V42.7125H58.2859V38.0375H53.2672ZM36.7281 22.7375V30.9188H59.1984V22.7375H36.7281ZM36.7281 22.7375V30.9188H59.1984V22.7375H36.7281ZM53.2672 38.0375V42.7125H58.2859V38.0375H53.2672ZM40.3781 38.0375V42.7125H45.3969V38.0375H40.3781ZM27.489 48.7688V53.4437H32.5078V48.7688H27.489ZM27.489 38.0375V42.7125H32.5078V38.0375H27.489ZM14.6 48.7688V53.4437H19.6187V48.7688H14.6ZM14.6 38.0375V42.7125H19.6187V38.0375H14.6ZM14.6 38.0375V42.7125H19.6187V38.0375H14.6ZM27.489 38.0375V42.7125H32.5078V38.0375H27.489ZM40.3781 38.0375V42.7125H45.3969V38.0375H40.3781ZM53.2672 38.0375V42.7125H58.2859V38.0375H53.2672ZM36.7281 22.7375V30.9188H59.1984V22.7375H36.7281ZM36.7281 22.7375V30.9188H59.1984V22.7375H36.7281ZM53.2672 38.0375V42.7125H58.2859V38.0375H53.2672ZM40.3781 38.0375V42.7125H45.3969V38.0375H40.3781ZM27.489 38.0375V42.7125H32.5078V38.0375H27.489ZM14.6 38.0375V42.7125H19.6187V38.0375H14.6ZM40.3781 38.0375V42.7125H45.3969V38.0375H40.3781ZM53.2672 38.0375V42.7125H58.2859V38.0375H53.2672ZM36.7281 22.7375V30.9188H59.1984V22.7375H36.7281ZM36.7281 22.7375V30.9188H59.1984V22.7375H36.7281ZM53.2672 38.0375V42.7125H58.2859V38.0375H53.2672ZM40.3781 38.0375V42.7125H45.3969V38.0375H40.3781ZM36.7281 22.7375V30.9188H59.1984V22.7375H36.7281ZM36.7281 22.7375V30.9188H59.1984V22.7375H36.7281ZM14.1437 12.1125V29.8563H26.0062V12.1125C26.0062 11.475 25.4359 11.05 24.8656 11.05H15.2844C14.714 11.05 14.1437 11.5812 14.1437 12.1125ZM23.1547 26.0312H17.1094C16.6531 26.0312 16.1968 25.7125 16.1968 25.1813C16.1968 24.7563 16.539 24.3312 17.1094 24.3312H23.2687C23.725 24.3312 24.1812 24.7563 24.1812 25.1813C24.0672 25.7125 23.725 26.0312 23.1547 26.0312ZM23.1547 21.25H17.1094C16.6531 21.25 16.1968 20.825 16.1968 20.4C16.1968 19.975 16.539 19.55 17.1094 19.55H23.2687C23.725 19.55 24.1812 19.8688 24.1812 20.4C24.0672 20.9313 23.725 21.25 23.1547 21.25ZM23.1547 16.4688H17.1094C16.6531 16.4688 16.1968 16.0437 16.1968 15.6187C16.1968 15.1937 16.539 14.7687 17.1094 14.7687H23.2687C23.725 14.7687 24.1812 15.1937 24.1812 15.6187C24.0672 16.15 23.725 16.4688 23.1547 16.4688ZM47.7922 10.5187V15.4062C47.7922 16.0438 48.3625 16.4688 48.9328 16.4688H51.7844C52.4687 16.4688 52.925 15.9375 52.925 15.4062V10.5187C52.925 9.88125 52.3547 9.45625 51.7844 9.45625H49.0469C48.3625 9.45625 47.7922 9.9875 47.7922 10.5187ZM38.5531 1.0625V6.5875C38.5531 7.225 39.1234 7.65 39.6937 7.65H61.0234C61.7078 7.65 62.164 7.11875 62.164 6.5875V1.0625C62.164 0.425 61.5937 0 61.0234 0H39.6937C39.1234 0 38.5531 0.53125 38.5531 1.0625ZM68.6656 60.8812C56.0047 60.8812 17.3375 60.8812 4.44841 60.8812C3.07966 60.8812 2.0531 61.8375 2.0531 63.1125V65.7688C2.0531 67.0438 3.07966 68 4.44841 68H68.6656C70.0344 68 71.0609 67.0438 71.0609 65.7688V63.1125C71.0609 61.8375 69.9203 60.8812 68.6656 60.8812Z" fill="black"/>
</svg>
