<svg width="380" height="68" viewBox="0 0 380 68" fill="none" xmlns="http://www.w3.org/2000/svg">
<rect width="380" height="68" fill="white" fill-opacity="0.8"/>
<path d="M96.8906 5.85938V61.1406L94.0312 57.3281L91.1719 61.1406L88.3125 57.3281L85.4531 61.1406L82.5938 57.3281L79.7344 61.1406L76.875 57.3281L74.0156 61.1406L71.1562 57.3281L68.2969 61.1406L65.8473 57.8714L65.4375 57.3281L62.5781 61.1406L59.7188 57.3281L56.8594 61.1406V5.85938L59.7188 9.67188L62.5781 5.85938L65.4375 9.67188L68.2969 5.85938L71.1562 9.67188L74.0156 5.85938L76.875 9.67188L79.7344 5.85938L82.5938 9.67188L85.4531 5.85938L88.3125 9.67188L91.1719 5.85938L94.0312 9.67188L96.8906 5.85938Z" fill="#E6E7E8"/>
<path d="M96.8906 26.8281V61.1406L94.0312 57.3281L91.1718 61.1406L88.3124 57.3281L85.4531 61.1406L82.5937 57.3281L79.7343 61.1406L76.8749 57.3281L74.0156 61.1406L71.1562 57.3281L68.2968 61.1406L65.8473 57.8714L96.8906 26.8281Z" fill="#E0E0E2"/>
<path d="M96.8906 34.4531C101.628 34.4531 105.469 30.6126 105.469 25.875C105.469 21.1374 101.628 17.2969 96.8906 17.2969C92.1531 17.2969 88.3125 21.1374 88.3125 25.875C88.3125 30.6126 92.1531 34.4531 96.8906 34.4531Z" fill="#FFD422"/>
<path d="M106.422 41.125C106.927 41.1265 107.411 41.3278 107.768 41.685C108.125 42.0422 108.327 42.5261 108.328 43.0312V43.9844H99.3688C99.3783 43.8605 99.3878 43.727 99.3878 43.6031C99.3899 43.1005 99.2587 42.6064 99.0075 42.1711C98.7564 41.7357 98.3943 41.3748 97.9581 41.125H106.422Z" fill="#FFB655"/>
<path d="M96.8906 38.2656V40.5055L93.0114 38.2656H96.8906Z" fill="#FFA733"/>
<path d="M96.8906 46.4339V49.7031H86.4062L81.6406 45.8906H79.7344V34.4531H86.3586H86.4062L93.0114 38.2656L96.8906 40.5055V46.4339Z" fill="#FFC477"/>
<path d="M103.562 38.2656H93.0114L96.8906 40.5055L97.9581 41.125H105.469V40.1719C105.467 39.6668 105.266 39.1828 104.909 38.8256C104.552 38.4685 104.068 38.2671 103.562 38.2656Z" fill="#FFA733"/>
<path d="M111.302 44.8231C111.037 44.5572 110.722 44.3463 110.375 44.2023C110.028 44.0584 109.657 43.9843 109.281 43.9844H99.3687C99.3783 43.8605 99.3878 43.727 99.3878 43.6031C99.3899 43.1005 99.2587 42.6064 99.0075 42.1711C98.7563 41.7357 98.3943 41.3748 97.9581 41.125L96.8906 40.5055L93.0114 38.2656L86.4062 34.4531H79.7344V45.8906H81.6406L86.4062 49.7031H109.281C109.846 49.7026 110.399 49.5347 110.869 49.2204C111.338 48.9062 111.704 48.4598 111.921 47.9376C112.137 47.4155 112.193 46.8409 112.083 46.2866C111.973 45.7323 111.701 45.223 111.302 44.8231Z" fill="#FFC477"/>
<path d="M79.7344 45.8906V47.7969H72.1094V43.9844V32.5469H79.7344V34.4531V45.8906Z" fill="#3D9AE2"/>
<path d="M111.976 44.1493C111.623 43.7939 111.203 43.5121 110.741 43.3202C110.278 43.1283 109.782 43.0301 109.281 43.0312C109.281 42.2729 108.98 41.5456 108.444 41.0094C107.908 40.4731 107.18 40.1719 106.422 40.1719C106.422 39.4135 106.121 38.6862 105.584 38.15C105.048 37.6138 104.321 37.3125 103.562 37.3125H97.8438V35.3576C100.195 35.1216 102.375 34.0206 103.96 32.2682C105.545 30.5159 106.423 28.2371 106.423 25.874C106.423 23.511 105.545 21.2322 103.96 19.4798C102.375 17.7275 100.195 16.6265 97.8438 16.3905V5.85938C97.8438 5.65933 97.7808 5.46436 97.6638 5.30207C97.5469 5.13979 97.3818 5.01842 97.192 4.95516C97.0023 4.8919 96.7974 4.88996 96.6064 4.9496C96.4155 5.00925 96.2482 5.12746 96.1281 5.2875L94.0312 8.08302L91.9344 5.2875C91.8417 5.17492 91.7253 5.08425 91.5935 5.02199C91.4617 4.95974 91.3177 4.92746 91.1719 4.92746C91.0261 4.92746 90.8821 4.95974 90.7503 5.02199C90.6184 5.08425 90.502 5.17492 90.4094 5.2875L88.3125 8.08302L86.2156 5.2875C86.123 5.17492 86.0066 5.08425 85.8747 5.02199C85.7429 4.95974 85.5989 4.92746 85.4531 4.92746C85.3073 4.92746 85.1633 4.95974 85.0315 5.02199C84.8997 5.08425 84.7833 5.17492 84.6906 5.2875L82.5938 8.08302L80.4969 5.2875C80.4042 5.17492 80.2878 5.08425 80.156 5.02199C80.0242 4.95974 79.8802 4.92746 79.7344 4.92746C79.5886 4.92746 79.4446 4.95974 79.3128 5.02199C79.1809 5.08425 79.0645 5.17492 78.9719 5.2875L76.875 8.08302L74.7781 5.2875C74.6855 5.17492 74.5691 5.08425 74.4372 5.02199C74.3054 4.95974 74.1614 4.92746 74.0156 4.92746C73.8698 4.92746 73.7258 4.95974 73.594 5.02199C73.4622 5.08425 73.3458 5.17492 73.2531 5.2875L71.1562 8.08302L69.0594 5.2875C68.9667 5.17492 68.8503 5.08425 68.7185 5.02199C68.5867 4.95974 68.4427 4.92746 68.2969 4.92746C68.1511 4.92746 68.0071 4.95974 67.8753 5.02199C67.7434 5.08425 67.627 5.17492 67.5344 5.2875L65.4375 8.08302L63.3406 5.2875C63.248 5.17492 63.1316 5.08425 62.9997 5.02199C62.8679 4.95974 62.7239 4.92746 62.5781 4.92746C62.4323 4.92746 62.2883 4.95974 62.1565 5.02199C62.0247 5.08425 61.9083 5.17492 61.8156 5.2875L59.7188 8.08302L57.6219 5.2875C57.5018 5.12746 57.3345 5.00925 57.1436 4.9496C56.9526 4.88996 56.7477 4.8919 56.558 4.95516C56.3682 5.01842 56.2031 5.13979 56.0862 5.30207C55.9692 5.46436 55.9062 5.65933 55.9062 5.85938V61.1406C55.9062 61.3407 55.9692 61.5356 56.0862 61.6979C56.2031 61.8602 56.3682 61.9816 56.558 62.0448C56.7477 62.1081 56.9526 62.11 57.1436 62.0504C57.3345 61.9907 57.5018 61.8725 57.6219 61.7125L59.7188 58.917L61.8156 61.7125C61.9083 61.8251 62.0247 61.9158 62.1565 61.978C62.2883 62.0403 62.4323 62.0725 62.5781 62.0725C62.7239 62.0725 62.8679 62.0403 62.9997 61.978C63.1316 61.9158 63.248 61.8251 63.3406 61.7125L65.4375 58.917L67.5344 61.7125C67.627 61.8251 67.7434 61.9158 67.8753 61.978C68.0071 62.0403 68.1511 62.0725 68.2969 62.0725C68.4427 62.0725 68.5867 62.0403 68.7185 61.978C68.8503 61.9158 68.9667 61.8251 69.0594 61.7125L71.1562 58.917L73.2531 61.7125C73.3458 61.8251 73.4622 61.9158 73.594 61.978C73.7258 62.0403 73.8698 62.0725 74.0156 62.0725C74.1614 62.0725 74.3054 62.0403 74.4372 61.978C74.5691 61.9158 74.6855 61.8251 74.7781 61.7125L76.875 58.917L78.9719 61.7125C79.0645 61.8251 79.1809 61.9158 79.3128 61.978C79.4446 62.0403 79.5886 62.0725 79.7344 62.0725C79.8802 62.0725 80.0242 62.0403 80.156 61.978C80.2878 61.9158 80.4042 61.8251 80.4969 61.7125L82.5938 58.917L84.6906 61.7125C84.7833 61.8251 84.8997 61.9158 85.0315 61.978C85.1633 62.0403 85.3073 62.0725 85.4531 62.0725C85.5989 62.0725 85.7429 62.0403 85.8747 61.978C86.0066 61.9158 86.123 61.8251 86.2156 61.7125L88.3125 58.917L90.4094 61.7125C90.502 61.8251 90.6184 61.9158 90.7503 61.978C90.8821 62.0403 91.0261 62.0725 91.1719 62.0725C91.3177 62.0725 91.4617 62.0403 91.5935 61.978C91.7253 61.9158 91.8417 61.8251 91.9344 61.7125L94.0312 58.917L96.1281 61.7125C96.2169 61.8309 96.332 61.927 96.4644 61.9931C96.5967 62.0593 96.7427 62.0938 96.8906 62.0938C97.1434 62.0938 97.3858 61.9933 97.5646 61.8146C97.7433 61.6358 97.8438 61.3934 97.8438 61.1406V50.6562H109.281C110.035 50.6557 110.771 50.4318 111.398 50.0129C112.024 49.5939 112.513 48.9987 112.801 48.3024C113.089 47.6061 113.165 46.8399 113.018 46.1007C112.871 45.3615 112.508 44.6824 111.976 44.1493ZM107.375 43.0312H100.285C100.269 42.8909 100.246 42.7516 100.215 42.6138C100.162 42.4303 100.095 42.2513 100.014 42.0781H106.422C106.675 42.0781 106.917 42.1785 107.096 42.3573C107.275 42.536 107.375 42.7785 107.375 43.0312ZM104.516 40.1719H98.2174L96.5666 39.2188H103.562C103.815 39.2188 104.058 39.3192 104.236 39.4979C104.415 39.6767 104.516 39.9191 104.516 40.1719ZM104.516 25.875C104.516 27.3831 104.068 28.8573 103.231 30.1112C102.393 31.3651 101.202 32.3425 99.8086 32.9196C98.4153 33.4967 96.8822 33.6477 95.4031 33.3535C93.924 33.0593 92.5653 32.3331 91.4989 31.2667C90.4326 30.2003 89.7063 28.8417 89.4121 27.3626C89.1179 25.8835 89.2689 24.3503 89.846 22.957C90.4232 21.5638 91.4005 20.3729 92.6544 19.535C93.9083 18.6972 95.3825 18.25 96.8906 18.25C98.9122 18.2523 100.85 19.0563 102.28 20.4858C103.709 21.9153 104.513 23.8534 104.516 25.875ZM95.9375 58.2812L94.7938 56.7563C94.7011 56.6437 94.5847 56.553 94.4529 56.4907C94.321 56.4285 94.177 56.3962 94.0312 56.3962C93.8855 56.3962 93.7415 56.4285 93.6096 56.4907C93.4778 56.553 93.3614 56.6437 93.2687 56.7563L91.1719 59.5518L89.075 56.7563C88.9824 56.6437 88.8659 56.553 88.7341 56.4907C88.6023 56.4285 88.4583 56.3962 88.3125 56.3962C88.1667 56.3962 88.0227 56.4285 87.8909 56.4907C87.7591 56.553 87.6426 56.6437 87.55 56.7563L85.4531 59.5518L83.3562 56.7563C83.2636 56.6437 83.1472 56.553 83.0154 56.4907C82.8835 56.4285 82.7395 56.3962 82.5938 56.3962C82.448 56.3962 82.304 56.4285 82.1721 56.4907C82.0403 56.553 81.9239 56.6437 81.8313 56.7563L79.7344 59.5518L77.6375 56.7563C77.5449 56.6437 77.4285 56.553 77.2966 56.4907C77.1648 56.4285 77.0208 56.3962 76.875 56.3962C76.7292 56.3962 76.5852 56.4285 76.4534 56.4907C76.3215 56.553 76.2051 56.6437 76.1125 56.7563L74.0156 59.5518L71.9187 56.7563C71.8261 56.6437 71.7097 56.553 71.5779 56.4907C71.446 56.4285 71.302 56.3962 71.1562 56.3962C71.0105 56.3962 70.8665 56.4285 70.7346 56.4907C70.6028 56.553 70.4864 56.6437 70.3938 56.7563L68.2969 59.5518L66.2 56.7563C66.1074 56.6437 65.991 56.553 65.8591 56.4907C65.7273 56.4285 65.5833 56.3962 65.4375 56.3962C65.2917 56.3962 65.1477 56.4285 65.0159 56.4907C64.884 56.553 64.7676 56.6437 64.675 56.7563L62.5781 59.5518L60.4813 56.7563C60.3886 56.6437 60.2722 56.553 60.1404 56.4907C60.0085 56.4285 59.8645 56.3962 59.7188 56.3962C59.573 56.3962 59.429 56.4285 59.2971 56.4907C59.1653 56.553 59.0489 56.6437 58.9562 56.7563L57.8125 58.2812V8.71875L58.9562 10.2438C59.0489 10.3563 59.1653 10.447 59.2971 10.5093C59.429 10.5715 59.573 10.6038 59.7188 10.6038C59.8645 10.6038 60.0085 10.5715 60.1404 10.5093C60.2722 10.447 60.3886 10.3563 60.4813 10.2438L62.5781 7.44823L64.675 10.2438C64.7676 10.3563 64.884 10.447 65.0159 10.5093C65.1477 10.5715 65.2917 10.6038 65.4375 10.6038C65.5833 10.6038 65.7273 10.5715 65.8591 10.5093C65.991 10.447 66.1074 10.3563 66.2 10.2438L68.2969 7.44823L70.3938 10.2438C70.4864 10.3563 70.6028 10.447 70.7346 10.5093C70.8665 10.5715 71.0105 10.6038 71.1562 10.6038C71.302 10.6038 71.446 10.5715 71.5779 10.5093C71.7097 10.447 71.8261 10.3563 71.9187 10.2438L74.0156 7.44823L76.1125 10.2438C76.2051 10.3563 76.3215 10.447 76.4534 10.5093C76.5852 10.5715 76.7292 10.6038 76.875 10.6038C77.0208 10.6038 77.1648 10.5715 77.2966 10.5093C77.4285 10.447 77.5449 10.3563 77.6375 10.2438L79.7344 7.44823L81.8313 10.2438C81.9239 10.3563 82.0403 10.447 82.1721 10.5093C82.304 10.5715 82.448 10.6038 82.5938 10.6038C82.7395 10.6038 82.8835 10.5715 83.0154 10.5093C83.1472 10.447 83.2636 10.3563 83.3562 10.2438L85.4531 7.44823L87.55 10.2438C87.6426 10.3563 87.7591 10.447 87.8909 10.5093C88.0227 10.5715 88.1667 10.6038 88.3125 10.6038C88.4583 10.6038 88.6023 10.5715 88.7341 10.5093C88.8659 10.447 88.9824 10.3563 89.075 10.2438L91.1719 7.44823L93.2687 10.2438C93.3614 10.3563 93.4778 10.447 93.6096 10.5093C93.7415 10.5715 93.8855 10.6038 94.0312 10.6038C94.177 10.6038 94.321 10.5715 94.4529 10.5093C94.5847 10.447 94.7011 10.3563 94.7938 10.2438L95.9375 8.71875V16.3924C93.5863 16.6284 91.4066 17.7294 89.8213 19.4818C88.236 21.2341 87.3582 23.5129 87.3582 25.876C87.3582 28.239 88.236 30.5178 89.8213 32.2702C91.4066 34.0225 93.5863 35.1235 95.9375 35.3595V37.3125H93.2687L86.8828 33.6277C86.7209 33.5436 86.5411 33.4997 86.3586 33.5H80.6875V32.5469C80.6875 32.2941 80.5871 32.0517 80.4083 31.8729C80.2296 31.6942 79.9872 31.5938 79.7344 31.5938H72.1094C71.8566 31.5938 71.6142 31.6942 71.4354 31.8729C71.2567 32.0517 71.1562 32.2941 71.1562 32.5469V47.7969C71.1562 48.0497 71.2567 48.2921 71.4354 48.4708C71.6142 48.6496 71.8566 48.75 72.1094 48.75H79.7344C79.9872 48.75 80.2296 48.6496 80.4083 48.4708C80.5871 48.2921 80.6875 48.0497 80.6875 47.7969V46.8438H81.3061L85.8105 50.4475C85.9796 50.5827 86.1897 50.6564 86.4062 50.6562H95.9375V58.2812ZM78.7812 33.5V46.8438H73.0625V33.5H78.7812ZM109.281 48.75H86.7408L82.2363 45.1462C82.0672 45.011 81.8571 44.9374 81.6406 44.9375H80.6875V35.4062H86.1508L97.4854 41.9504C97.7039 42.0747 97.8957 42.2409 98.0498 42.4396C98.2038 42.6383 98.317 42.8655 98.3829 43.1081C98.4487 43.3507 98.466 43.6039 98.4335 43.8532C98.4011 44.1025 98.3198 44.343 98.194 44.5607C98.0683 44.7784 97.9008 44.9691 97.7011 45.1218C97.5014 45.2745 97.2735 45.3862 97.0304 45.4505C96.7874 45.5147 96.534 45.5303 96.285 45.4962C96.0359 45.4622 95.796 45.3792 95.5791 45.252L87.8302 40.7781L86.8771 42.4289L94.626 46.9028C95.0595 47.1534 95.5381 47.3161 96.0345 47.3817C96.5309 47.4472 97.0353 47.4144 97.519 47.285C98.0027 47.1556 98.4562 46.9322 98.8535 46.6275C99.2509 46.3229 99.5843 45.9429 99.8348 45.5094C99.9361 45.326 100.022 45.1347 100.093 44.9375H109.281C109.787 44.9375 110.272 45.1383 110.629 45.4958C110.987 45.8533 111.188 46.3382 111.188 46.8438C111.188 47.3493 110.987 47.8342 110.629 48.1917C110.272 48.5492 109.787 48.75 109.281 48.75Z" fill="black"/>
<path d="M95.9375 20.1562V21.1094C95.1791 21.1094 94.4519 21.4106 93.9156 21.9469C93.3794 22.4831 93.0781 23.2104 93.0781 23.9688C93.0781 24.7271 93.3794 25.4544 93.9156 25.9906C94.4519 26.5269 95.1791 26.8281 95.9375 26.8281H97.8438C98.0965 26.8281 98.339 26.9285 98.5177 27.1073C98.6965 27.286 98.7969 27.5285 98.7969 27.7812C98.7969 28.034 98.6965 28.2765 98.5177 28.4552C98.339 28.634 98.0965 28.7344 97.8438 28.7344H95.9375C95.6847 28.7344 95.4423 28.634 95.2635 28.4552C95.0848 28.2765 94.9844 28.034 94.9844 27.7812H93.0781C93.0781 28.5396 93.3794 29.2669 93.9156 29.8031C94.4519 30.3394 95.1791 30.6406 95.9375 30.6406V31.5938H97.8438V30.6406C98.6021 30.6406 99.3294 30.3394 99.8656 29.8031C100.402 29.2669 100.703 28.5396 100.703 27.7812C100.703 27.0229 100.402 26.2956 99.8656 25.7594C99.3294 25.2231 98.6021 24.9219 97.8438 24.9219H95.9375C95.6847 24.9219 95.4423 24.8215 95.2635 24.6427C95.0848 24.464 94.9844 24.2215 94.9844 23.9688C94.9844 23.716 95.0848 23.4735 95.2635 23.2948C95.4423 23.116 95.6847 23.0156 95.9375 23.0156H97.8438C98.0965 23.0156 98.339 23.116 98.5177 23.2948C98.6965 23.4735 98.7969 23.716 98.7969 23.9688H100.703C100.703 23.2104 100.402 22.4831 99.8656 21.9469C99.3294 21.4106 98.6021 21.1094 97.8438 21.1094V20.1562H95.9375Z" fill="black"/>
<path d="M63.5312 31.5938H59.7188V33.5H63.5312V31.5938Z" fill="black"/>
<path d="M69.25 31.5938H65.4375V33.5H69.25V31.5938Z" fill="black"/>
<path d="M63.5312 35.4062H59.7188V37.3125H63.5312V35.4062Z" fill="black"/>
<path d="M69.25 35.4062H65.4375V37.3125H69.25V35.4062Z" fill="black"/>
<path d="M63.5312 23.9688H59.7188V25.875H63.5312V23.9688Z" fill="black"/>
<path d="M84.5 23.9688H65.4375V25.875H84.5V23.9688Z" fill="black"/>
<path d="M63.5312 27.7812H59.7188V29.6875H63.5312V27.7812Z" fill="black"/>
<path d="M84.5 27.7812H65.4375V29.6875H84.5V27.7812Z" fill="black"/>
<path d="M63.5312 39.2188H59.7188V41.125H63.5312V39.2188Z" fill="black"/>
<path d="M69.25 39.2188H65.4375V41.125H69.25V39.2188Z" fill="black"/>
<path d="M63.5312 43.0312H59.7188V44.9375H63.5312V43.0312Z" fill="black"/>
<path d="M69.25 43.0312H65.4375V44.9375H69.25V43.0312Z" fill="black"/>
<path d="M63.5312 46.8438H59.7188V48.75H63.5312V46.8438Z" fill="black"/>
<path d="M69.25 46.8438H65.4375V48.75H69.25V46.8438Z" fill="black"/>
<path d="M63.5312 50.6562H59.7188V52.5625H63.5312V50.6562Z" fill="black"/>
<path d="M82.5938 50.6562H65.4375V52.5625H82.5938V50.6562Z" fill="black"/>
<path d="M69.25 14.4375H59.7188V16.3438H69.25V14.4375Z" fill="black"/>
<path d="M74.9688 18.25H59.7188V20.1562H74.9688V18.25Z" fill="black"/>
<path d="M74.9688 14.4375H71.1562V16.3438H74.9688V14.4375Z" fill="black"/>
<path d="M163.951 28.5433C163.28 23.696 159.551 20.8835 154.715 20.8835C149.015 20.8835 144.722 25.0384 144.722 32.0909C144.722 39.1328 148.962 43.2983 154.715 43.2983C159.903 43.2983 163.344 39.9425 163.951 35.777L159.967 35.7557C159.466 38.3125 157.378 39.7507 154.768 39.7507C151.231 39.7507 148.695 37.098 148.695 32.0909C148.695 27.169 151.21 24.4311 154.779 24.4311C157.431 24.4311 159.509 25.9332 159.967 28.5433H163.951ZM177.497 36.1179C177.497 38.6108 175.717 39.8466 174.013 39.8466C172.159 39.8466 170.923 38.5362 170.923 36.4588V26.6364H167.067V37.0554C167.067 40.9865 169.304 43.2131 172.521 43.2131C174.972 43.2131 176.697 41.924 177.443 40.0916H177.614V43H181.353V26.6364H177.497V36.1179ZM197.919 30.9616C197.386 28.1918 195.17 26.4233 191.335 26.4233C187.393 26.4233 184.708 28.3622 184.719 31.3878C184.708 33.7741 186.179 35.3509 189.321 36.0007L192.113 36.5866C193.615 36.9169 194.318 37.5241 194.318 38.451C194.318 39.5696 193.103 40.4112 191.271 40.4112C189.502 40.4112 188.352 39.6442 188.022 38.174L184.261 38.5362C184.74 41.5405 187.265 43.3196 191.282 43.3196C195.373 43.3196 198.26 41.1996 198.27 38.0994C198.26 35.7663 196.757 34.3388 193.668 33.6676L190.877 33.071C189.215 32.6982 188.554 32.1229 188.565 31.1747C188.554 30.0668 189.779 29.2997 191.388 29.2997C193.167 29.2997 194.105 30.2692 194.403 31.3452L197.919 30.9616ZM209.288 26.6364H206.06V22.7159H202.204V26.6364H199.881V29.6193H202.204V38.7173C202.182 41.7962 204.42 43.3089 207.317 43.2237C208.415 43.1918 209.171 42.9787 209.586 42.8402L208.937 39.8253C208.723 39.8786 208.287 39.9744 207.807 39.9744C206.838 39.9744 206.06 39.6335 206.06 38.0781V29.6193H209.288V26.6364ZM219.142 43.3196C223.936 43.3196 226.983 39.9425 226.983 34.8821C226.983 29.8111 223.936 26.4233 219.142 26.4233C214.348 26.4233 211.301 29.8111 211.301 34.8821C211.301 39.9425 214.348 43.3196 219.142 43.3196ZM219.163 40.2301C216.511 40.2301 215.211 37.8651 215.211 34.8714C215.211 31.8778 216.511 29.4808 219.163 29.4808C221.773 29.4808 223.073 31.8778 223.073 34.8714C223.073 37.8651 221.773 40.2301 219.163 40.2301ZM229.923 43H233.779V33.0497C233.779 31.0362 235.122 29.6726 236.784 29.6726C238.414 29.6726 239.532 30.7699 239.532 32.4531V43H243.314V32.794C243.314 30.951 244.412 29.6726 246.276 29.6726C247.831 29.6726 249.067 30.5888 249.067 32.6129V43H252.934V32.0163C252.934 28.3622 250.825 26.4233 247.821 26.4233C245.445 26.4233 243.634 27.5952 242.909 29.4169H242.739C242.11 27.5632 240.523 26.4233 238.318 26.4233C236.123 26.4233 234.483 27.5526 233.801 29.4169H233.609V26.6364H229.923V43ZM263.758 43.3196C267.572 43.3196 270.192 41.4553 270.874 38.6108L267.273 38.206C266.751 39.5909 265.473 40.3153 263.811 40.3153C261.318 40.3153 259.667 38.6747 259.635 35.8729H271.034V34.6903C271.034 28.9482 267.582 26.4233 263.555 26.4233C258.868 26.4233 255.81 29.8643 255.81 34.9141C255.81 40.049 258.825 43.3196 263.758 43.3196ZM259.646 33.2734C259.763 31.1854 261.307 29.4276 263.609 29.4276C265.825 29.4276 267.316 31.0469 267.337 33.2734H259.646ZM273.963 43H277.82V33.38C277.82 31.3026 279.386 29.8324 281.506 29.8324C282.156 29.8324 282.965 29.9496 283.296 30.0561V26.5085C282.944 26.4446 282.337 26.402 281.911 26.402C280.036 26.402 278.47 27.4673 277.873 29.3636H277.703V26.6364H273.963V43Z" fill="black"/>
</svg>
