<svg width="64" height="60" viewBox="0 0 64 60" fill="none" xmlns="http://www.w3.org/2000/svg">
<g clip-path="url(#clip0)">
<path d="M21.0774 3.18123C22.353 4.28558 23 6.05415 23 8.4375C23 8.68614 23.1054 8.92459 23.2929 9.10041C23.4804 9.27623 23.7348 9.375 24 9.375C24.2652 9.375 24.5196 9.27623 24.7071 9.10041C24.8946 8.92459 25 8.68614 25 8.4375C25 5.49545 24.1289 3.25676 22.4106 1.78345C20.8918 0.546964 18.9198 -0.0878396 16.9111 0.0130435C16.6482 0.0361355 16.4057 0.155784 16.2365 0.345878C16.0674 0.535972 15.9853 0.781079 16.0082 1.02771C16.031 1.27434 16.1571 1.50248 16.3587 1.66233C16.5603 1.82218 16.8212 1.90077 17.0845 1.88095C18.5425 1.82811 19.9682 2.29239 21.0774 3.18123ZM48.1835 12.403C48.2822 12.1138 48.3184 11.8091 48.2899 11.5067C48.2614 11.2043 48.1688 10.9102 48.0175 10.6417C47.3034 9.33226 45.3813 8.5958 44.2992 8.27337C43.4228 7.99998 42.5075 7.85207 41.5841 7.83462H41.584C39.3982 7.83467 38.7533 9.00011 38.5775 9.50116C38.4788 9.79031 38.4426 10.095 38.4711 10.3975C38.4996 10.6999 38.5922 10.994 38.7434 11.2624C39.4576 12.5719 41.3796 13.3084 42.4618 13.6308C43.3382 13.9042 44.2536 14.0521 45.177 14.0695C47.3628 14.0695 48.0077 12.9041 48.1835 12.403ZM38.4552 16.7528H38.4551C36.9315 16.7528 36.1577 17.3188 35.7685 17.8316C36.0422 17.7967 36.3181 17.7796 36.5942 17.7805C37.4617 17.7644 38.319 17.9585 39.083 18.344C39.5799 18.5895 40.1331 18.7179 40.6948 18.718C41.2565 18.718 41.8097 18.5897 42.3066 18.3442C42.5842 18.2119 42.8716 18.0986 43.1666 18.0051C42.5345 17.667 41.8652 17.3942 41.1703 17.1915C40.2939 16.9181 39.3786 16.7702 38.4552 16.7528Z" fill="black"/>
<path d="M50.5107 18.3439C50.9491 18.1282 51.4173 17.9708 51.902 17.8762C52.9277 11.88 52.6187 6.64989 50.8971 3.4932C50.5311 2.74205 50.0076 2.06758 49.358 1.50991C48.7083 0.952237 47.9456 0.522756 47.1153 0.247011C46.5591 0.0822178 45.9791 -0.00110696 45.3959 -2.00197e-05H45.3949C39.153 0.000865918 32.9295 8.84727 29.3022 17.8442C29.8548 17.9292 30.3889 18.0981 30.8835 18.3442C30.9874 18.3917 31.0848 18.4356 31.1821 18.4763C35.0793 8.76608 40.9849 1.87561 45.3952 1.87498C45.7731 1.87362 46.149 1.92723 46.5094 2.03391C50.2842 3.15869 51.4262 10.0185 49.7391 18.632C50.0067 18.5625 50.2654 18.4659 50.5107 18.3439ZM2 60H18C18.2627 60 18.5228 59.9516 18.7655 59.8574C19.0081 59.7632 19.2286 59.6251 19.4144 59.451C19.6001 59.2768 19.7474 59.0701 19.8479 58.8426C19.9484 58.6151 20.0001 58.3712 20 58.125V28.6406C20 27.4453 15.34 19.589 14.725 18.15C15.1004 18.0138 15.423 17.7744 15.6506 17.4632C15.8781 17.152 15.9999 16.7835 16 16.4062V14.5312C16.0001 14.285 15.9484 14.0411 15.8479 13.8136C15.7474 13.5861 15.6001 13.3794 15.4144 13.2052C15.2286 13.0311 15.0081 12.893 14.7655 12.7988C14.5228 12.7046 14.2627 12.6562 14 12.6562H6C5.73734 12.6562 5.47723 12.7046 5.23455 12.7988C4.99186 12.893 4.77135 13.0311 4.58562 13.2052C4.39989 13.3794 4.25257 13.5861 4.15209 13.8136C4.05161 14.0411 3.99993 14.285 4 14.5312V16.4062C4.00033 16.786 4.12392 17.1566 4.35434 17.4689C4.58476 17.7812 4.91111 18.0204 5.29 18.1547C4.67497 19.6312 7.43036e-08 27.45 7.43036e-08 28.6406V58.125C-7.15309e-05 58.3712 0.0516111 58.6151 0.152095 58.8426C0.252579 59.0701 0.399895 59.2768 0.585627 59.451C0.771358 59.6251 0.991865 59.7632 1.23455 59.8574C1.47723 59.9516 1.73734 60 2 60ZM6 14.5312H14V16.4062H6V14.5312ZM10 34.2187C11.1867 34.2187 12.3467 34.5486 13.3334 35.1667C14.3201 35.7848 15.0892 36.6633 15.5433 37.6911C15.9974 38.719 16.1162 39.85 15.8847 40.9411C15.6532 42.0323 15.0818 43.0345 14.2426 43.8212C13.4035 44.6079 12.3344 45.1436 11.1705 45.3606C10.0067 45.5777 8.80026 45.4663 7.7039 45.0406C6.60754 44.6148 5.67047 43.8938 5.01118 42.9688C4.35189 42.0438 4 40.9562 4 39.8437C4.00126 38.3522 4.63381 36.9222 5.75875 35.8676C6.8837 34.8129 8.40909 34.2199 10 34.2187ZM63.9883 46.2726L63.9961 46.021C64.009 45.886 63.9905 45.75 63.9419 45.6224C63.8933 45.4947 63.8158 45.3784 63.7147 45.2816C63.6135 45.1847 63.4912 45.1096 63.3561 45.0613C63.221 45.0131 63.0764 44.9928 62.9321 45.002C60.3546 45.1853 57.8193 45.7198 55.4062 46.5886C55.0048 43.7826 53.1691 40.7494 49.9082 37.5398L49.7295 37.3622C49.6367 37.2597 49.5215 37.1771 49.3916 37.12C49.2618 37.0629 49.1204 37.0326 48.977 37.0312C48.8332 37.027 48.6901 37.0533 48.5586 37.1081C48.427 37.1629 48.3103 37.2448 48.2173 37.3478C47.3366 38.282 43.6221 42.4557 42.706 47.2293C39.8251 45.9831 36.73 45.2289 33.5664 45.002C33.421 44.9897 33.2746 45.0077 33.1375 45.0547C33.0004 45.1017 32.8761 45.1765 32.7734 45.2737C32.6723 45.3699 32.5955 45.4861 32.5488 45.6139C32.5022 45.7416 32.4868 45.8776 32.5039 46.0116L32.5044 46.0789L32.5103 46.2714C32.6763 52.055 34.2266 56.0882 37.1182 58.2586C38.7149 59.4342 40.6994 60.0501 42.729 60C43.6115 59.9953 44.4914 59.9106 45.3564 59.7471C45.5873 59.7046 45.7947 59.5873 45.9424 59.4156C46.0901 59.244 46.1686 59.0291 46.1641 58.8086C46.1031 57.7244 45.8436 56.6582 45.397 55.6565C45.312 55.4628 45.2187 55.2692 45.1128 55.0687C44.6752 54.2276 44.0648 53.4758 43.3167 52.8563C42.5685 52.2369 41.6973 51.7619 40.7529 51.4588C40.6286 51.4184 40.497 51.4015 40.3657 51.4089C40.2344 51.4163 40.106 51.4479 39.9877 51.5019C39.8695 51.5559 39.7637 51.6313 39.6766 51.7236C39.5895 51.816 39.5226 51.9236 39.4799 52.0403C39.4372 52.1569 39.4195 52.2803 39.4277 52.4034C39.4359 52.5264 39.47 52.6468 39.5279 52.7575C39.5858 52.8682 39.6665 52.9672 39.7653 53.0486C39.864 53.13 39.979 53.1924 40.1035 53.2322C40.8035 53.4544 41.449 53.8055 42.0021 54.265C42.5552 54.7245 43.0047 55.2831 43.3242 55.9078C43.4053 56.0616 43.48 56.2154 43.5498 56.3752C43.7868 56.9117 43.9594 57.4714 44.0644 58.0437C41.7461 58.3122 39.833 57.8945 38.3681 56.7949C36.0756 55.074 34.7891 51.7717 34.5395 46.9741C37.6035 47.3264 45.4831 48.7686 47.3096 54.3348C46.9256 55.9331 46.8975 57.5885 47.227 59.1975C47.2497 59.3188 47.2976 59.4346 47.368 59.5385C47.4384 59.6424 47.5299 59.7323 47.6374 59.8031C47.7448 59.8738 47.8661 59.924 47.9942 59.9508C48.1224 59.9776 48.2549 59.9805 48.3843 59.9592C48.5136 59.938 48.6372 59.8931 48.748 59.8271C48.8589 59.7611 48.9547 59.6753 49.0302 59.5745C49.1056 59.4738 49.1592 59.3601 49.1878 59.24C49.2163 59.1198 49.2194 58.9956 49.1968 58.8743C48.6743 56.074 49.2051 53.7018 50.7759 51.8239C53.7007 48.3256 59.4692 47.2758 61.959 46.9782C61.7109 51.8056 60.4287 55.1168 58.144 56.8279C56.7109 57.9007 54.8447 58.3085 52.5888 58.0449C52.6929 57.4701 52.8642 56.9079 53.0996 56.3683C53.3829 55.6428 53.8341 54.9851 54.4208 54.4425C55.0075 53.8998 55.715 53.4857 56.4927 53.2299C56.617 53.1896 56.7316 53.1268 56.8299 53.045C56.9283 52.9631 57.0084 52.8639 57.0658 52.753C57.1232 52.6421 57.1567 52.5216 57.1644 52.3986C57.1721 52.2755 57.1538 52.1522 57.1105 52.0358C57.0673 51.9194 57 51.8121 56.9125 51.72C56.825 51.628 56.719 51.5531 56.6006 51.4995C56.4821 51.446 56.3536 51.4149 56.2223 51.408C56.091 51.401 55.9595 51.4185 55.8354 51.4593C54.7912 51.8032 53.8398 52.357 53.0477 53.0818C52.2557 53.8065 51.6421 54.6848 51.25 55.6551C50.808 56.6582 50.5511 57.7244 50.4902 58.8082C50.4857 59.0283 50.5639 59.2428 50.7111 59.4143C50.8583 59.5858 51.0651 59.7033 51.2954 59.7462C52.1507 59.9103 53.0211 59.9953 53.894 60C55.8827 60.0476 57.8268 59.444 59.3921 58.293C62.2763 56.1333 63.8227 52.0889 63.9883 46.2726ZM49.2016 50.6671L49.1945 50.6762C48.9207 49.5337 49.0845 48.3374 49.6572 47.2968C49.7764 47.0746 49.7965 46.8172 49.7131 46.5811C49.6298 46.345 49.4499 46.1496 49.2129 46.0379C48.9759 45.9263 48.7013 45.9074 48.4495 45.9855C48.1976 46.0636 47.9892 46.2323 47.8701 46.4545C47.2315 47.6284 46.9661 48.9497 47.1057 50.2609C46.3629 49.4836 45.5142 48.8012 44.5816 48.2313C45.0389 44.5275 47.6791 40.969 49.0102 39.3873C51.8623 42.3293 53.365 45.0222 53.4921 47.4152C51.8351 48.2058 50.3734 49.3137 49.2016 50.6671Z" fill="black"/>
<path d="M39 31.875V43.9828C39.75 44.1656 40.545 44.3907 41.35 44.6672C41.7881 43.4429 42.3402 42.257 43 41.1234V31.875C43 31.3777 42.7893 30.9008 42.4142 30.5492C42.0391 30.1975 41.5304 30 41 30C40.4696 30 39.9609 30.1975 39.5858 30.5492C39.2107 30.9008 39 31.3777 39 31.875ZM26 31.875V47.8125C26 48.3098 26.2107 48.7867 26.5858 49.1383C26.9609 49.49 27.4696 49.6875 28 49.6875C28.5304 49.6875 29.0391 49.49 29.4142 49.1383C29.7893 48.7867 30 48.3098 30 47.8125V31.875C30 31.3777 29.7893 30.9008 29.4142 30.5492C29.0391 30.1975 28.5304 30 28 30C27.4696 30 26.9609 30.1975 26.5858 30.5492C26.2107 30.9008 26 31.3777 26 31.875Z" fill="black"/>
<path d="M19.1671 22.1609C21.0804 25.362 22 26.9745 22 28.6397V56.2083C22.0908 56.996 22.1686 57.6468 22.23 58.125H22C21.999 58.2791 21.9878 58.4331 21.9666 58.586C21.9615 58.6238 21.9545 58.6608 21.9482 58.6983C21.9281 58.8213 21.9013 58.9433 21.868 59.0637C21.861 59.0891 21.8548 59.1145 21.8472 59.1396C21.758 59.4367 21.6298 59.7223 21.4654 59.9898L21.46 60H36.26C36.125 59.9109 35.995 59.8172 35.87 59.7234C35.765 59.6437 35.66 59.5641 35.56 59.4797C33.135 57.5156 31.575 54.4734 30.89 50.4C30.3389 50.9424 29.6271 51.3174 28.8464 51.4768C28.0657 51.6361 27.252 51.5724 26.5103 51.2938C25.7686 51.0153 25.133 50.5347 24.6855 49.9142C24.2381 49.2936 23.9993 48.5615 24 47.8125V31.875C24 30.8804 24.4214 29.9266 25.1716 29.2233C25.9217 28.5201 26.9391 28.125 28 28.125C29.0609 28.125 30.0783 28.5201 30.8284 29.2233C31.5786 29.9266 32 30.8804 32 31.875V43.5047C32.5133 43.2259 33.103 43.0955 33.695 43.1297C34.8046 43.2091 35.9082 43.3499 37 43.5516V31.875C37 30.8804 37.4214 29.9266 38.1716 29.2233C38.9217 28.5201 39.9391 28.125 41 28.125C42.0609 28.125 43.0783 28.5201 43.8284 29.2233C44.5786 29.9266 45 30.8804 45 31.875V38.1375C45.735 37.1812 46.37 36.4781 46.72 36.1078C47.0016 35.8084 47.348 35.5686 47.7362 35.4045C48.1243 35.2405 48.5453 35.1558 48.9711 35.1563C49.3969 35.1567 49.8178 35.2422 50.2055 35.4071C50.5933 35.572 50.9392 35.8125 51.22 36.1125L51.36 36.2484C51.81 36.6891 52.235 37.1297 52.63 37.5703L53.995 20.6953C53.9975 20.6751 53.9975 20.6546 53.995 20.6344C53.995 20.6203 54 20.6062 54 20.5922C54 20.5687 53.995 20.5453 53.995 20.5219C53.9909 20.513 53.9892 20.5034 53.99 20.4937C53.9639 20.2642 53.8485 20.0518 53.6659 19.897C53.4833 19.7422 53.2462 19.656 53 19.6547C52.1324 19.6399 51.2752 19.8335 50.51 20.2172C50.0131 20.4634 49.4596 20.5922 48.8975 20.5922C48.3355 20.5922 47.7819 20.4634 47.285 20.2172C46.5142 19.8475 45.6608 19.6547 44.795 19.6547C43.9292 19.6547 43.0758 19.8475 42.305 20.2172C41.809 20.4634 41.2563 20.5922 40.695 20.5922C40.1338 20.5922 39.581 20.4634 39.085 20.2172C38.3142 19.8475 37.4608 19.6547 36.595 19.6547C35.7292 19.6547 34.8758 19.8475 34.105 20.2172C33.609 20.4634 33.0563 20.5922 32.495 20.5922C31.9338 20.5922 31.381 20.4634 30.885 20.2172C30.1151 19.8475 29.2625 19.6547 28.3975 19.6547C27.5325 19.6547 26.6799 19.8475 25.91 20.2172C25.4131 20.4634 24.8596 20.5922 24.2975 20.5922C23.7355 20.5922 23.1819 20.4634 22.685 20.2172C21.9219 19.8328 21.0661 19.6391 20.2 19.6547C19.4277 19.6385 18.6621 19.7927 17.965 20.1047C17.9665 20.1073 17.9684 20.1151 17.97 20.119C18.4468 20.9549 18.9091 21.7292 19.1671 22.1609ZM17.2907 18.5243C17.4294 18.4715 17.564 18.4113 17.7107 18.3442C18.4805 17.9737 19.3333 17.7804 20.1986 17.7804C21.0639 17.7804 21.9167 17.9737 22.6865 18.3442C23.183 18.5897 23.7359 18.7179 24.2972 18.7179C24.8586 18.7179 25.4114 18.5897 25.9079 18.3442C26.2995 18.1524 26.7142 18.0054 27.1433 17.9066C28.543 14.2333 30.3549 10.7098 32.5486 7.39539C30.8528 5.72302 28.6682 4.55696 26.2686 4.04327L26.2687 4.04362C26.7748 5.45915 27.0221 6.9447 27 8.43749C27 9.18341 26.6839 9.89878 26.1213 10.4262C25.5587 10.9537 24.7957 11.25 24 11.25C23.2044 11.25 22.4413 10.9537 21.8787 10.4262C21.3161 9.89878 21 9.18341 21 8.43749C21 6.60667 20.5733 5.30501 19.7317 4.56825C19.6223 4.55174 19.5658 4.43465 19.4796 4.37544C17.8363 4.90368 16.3276 5.74568 15.0489 6.84825C13.7703 7.95083 12.7494 9.29002 12.0508 10.7812H14C15.0605 10.7824 16.0772 11.1778 16.8271 11.8808C17.577 12.5838 17.9988 13.537 18 14.5312V16.4062C17.9993 17.1635 17.7518 17.9025 17.2907 18.5243Z" fill="black"/>
</g>
<defs>
<clipPath id="clip0">
<rect width="64" height="60" fill="white"/>
</clipPath>
</defs>
</svg>
