<svg width="335" height="96" viewBox="0 0 335 96" fill="none" xmlns="http://www.w3.org/2000/svg">
<path d="M50.7715 31.0938C49.9619 24.375 44.8767 20.5114 38.1437 20.5114C30.459 20.5114 24.5926 25.9375 24.5926 35.4545C24.5926 44.9432 30.3596 50.3977 38.1437 50.3977C45.6011 50.3977 50.1039 45.4403 50.7715 40.0852L44.5499 40.0568C43.9676 43.1676 41.5244 44.9574 38.2431 44.9574C33.8255 44.9574 30.8284 41.6761 30.8284 35.4545C30.8284 29.4034 33.7829 25.9517 38.2857 25.9517C41.6522 25.9517 44.0812 27.8977 44.5499 31.0938H50.7715ZM72.8175 20.9091V39.2756C72.8175 42.5994 70.4879 45 66.9084 45C63.343 45 60.9993 42.5994 60.9993 39.2756V20.9091H54.8487V39.8011C54.8487 46.1648 59.6499 50.4119 66.9084 50.4119C74.1385 50.4119 78.968 46.1648 78.968 39.8011V20.9091H72.8175ZM83.6951 50H96.124C102.658 50 106.138 46.5909 106.138 41.9602C106.138 37.6562 103.056 35.0568 99.7462 34.9006V34.6165C102.772 33.9347 105.002 31.7898 105.002 28.3665C105.002 24.0057 101.763 20.9091 95.3428 20.9091H83.6951V50ZM89.8456 44.9716V37.2443H95.0019C97.9564 37.2443 99.7888 38.9489 99.7888 41.3494C99.7888 43.5369 98.2973 44.9716 94.8598 44.9716H89.8456ZM89.8456 33.0824V25.8807H94.5189C97.2462 25.8807 98.7945 27.2869 98.7945 29.3892C98.7945 31.6903 96.9195 33.0824 94.4053 33.0824H89.8456ZM109.807 50H129.466V44.929H115.958V37.983H128.401V32.9119H115.958V25.9801H129.409V20.9091H109.807V50ZM168.558 31.0938C167.748 24.375 162.663 20.5114 155.93 20.5114C148.245 20.5114 142.379 25.9375 142.379 35.4545C142.379 44.9432 148.146 50.3977 155.93 50.3977C163.388 50.3977 167.89 45.4403 168.558 40.0852L162.336 40.0568C161.754 43.1676 159.311 44.9574 156.03 44.9574C151.612 44.9574 148.615 41.6761 148.615 35.4545C148.615 29.4034 151.569 25.9517 156.072 25.9517C159.439 25.9517 161.868 27.8977 162.336 31.0938H168.558ZM172.635 50H178.786V39.6875H183.274L188.786 50H195.576L189.397 38.6932C192.706 37.2727 194.539 34.3892 194.539 30.4119C194.539 24.6307 190.718 20.9091 184.112 20.9091H172.635V50ZM178.786 34.7443V25.9375H182.933C186.485 25.9375 188.203 27.5142 188.203 30.4119C188.203 33.2955 186.485 34.7443 182.962 34.7443H178.786ZM198.552 50H218.211V44.929H204.702V37.983H217.146V32.9119H204.702V25.9801H218.154V20.9091H198.552V50ZM233.023 50C241.887 50 247.256 44.517 247.256 35.4261C247.256 26.3636 241.887 20.9091 233.108 20.9091H222.711V50H233.023ZM228.861 44.7301V26.179H232.782C238.236 26.179 241.12 28.9631 241.12 35.4261C241.12 41.9176 238.236 44.7301 232.768 44.7301H228.861ZM257.629 20.9091H251.479V50H257.629V20.9091ZM261.249 25.9801H270.155V50H276.234V25.9801H285.141V20.9091H261.249V25.9801ZM304.523 29.2756H310.418C310.333 24.0909 306.072 20.5114 299.594 20.5114C293.216 20.5114 288.543 24.0341 288.572 29.3182C288.557 33.608 291.583 36.0653 296.498 37.2443L299.665 38.0398C302.833 38.8068 304.594 39.7159 304.608 41.6761C304.594 43.8068 302.577 45.2557 299.452 45.2557C296.256 45.2557 293.955 43.7784 293.756 40.8665H287.804C287.961 47.1591 292.464 50.4119 299.523 50.4119C306.625 50.4119 310.802 47.017 310.816 41.6903C310.802 36.8466 307.151 34.2756 302.094 33.1392L299.481 32.5142C296.952 31.9318 294.836 30.9943 294.878 28.9062C294.878 27.0312 296.54 25.6534 299.552 25.6534C302.492 25.6534 304.296 26.9886 304.523 29.2756Z" fill="black"/>
<line x1="141" y1="0.5" x2="328" y2="0.5" stroke="black"/>
<line y1="-0.5" x2="52.0058" y2="-0.5" transform="matrix(-0.0149379 0.999888 -0.999737 -0.0229487 328 1)" stroke="black"/>
<line x1="197" y1="73.5" x2="10" y2="73.5" stroke="black"/>
<line y1="-0.5" x2="52.0058" y2="-0.5" transform="matrix(0.0149379 -0.999888 0.999737 0.0229487 10 73)" stroke="black"/>
</svg>
