<svg width="38" height="33" viewBox="0 0 38 33" fill="none" xmlns="http://www.w3.org/2000/svg">
<path d="M28.5668 11.5178H4.25274C4.25274 13.0969 2.77579 14.3795 0.957428 14.3795V23.2676C2.77579 23.2676 4.25274 24.5502 4.25274 26.1293H28.5668C28.5668 24.5502 30.0438 23.2676 31.8621 23.2676V14.3795C30.0438 14.3795 28.5668 13.0969 28.5668 11.5178ZM16.4172 22.4361C14.1164 22.4361 12.2609 20.8183 12.2609 18.8267C12.2609 16.8351 14.1238 15.2174 16.4172 15.2174C18.7106 15.2174 20.5734 16.8351 20.5734 18.8267C20.5734 20.8183 18.7106 22.4361 16.4172 22.4361Z" fill="#39B54A"/>
<path d="M16.4172 22.0494C14.7473 22.0301 13.3 21.0762 12.8324 19.684C12.3648 18.2854 13.1219 16.7836 14.5394 16.0424C15.9793 15.2883 17.857 15.5397 19.0371 16.5451C20.2394 17.5635 20.4398 19.2006 19.616 20.451C18.9703 21.45 17.716 22.0365 16.4172 22.0494C15.8457 22.0559 15.8457 22.8293 16.4172 22.8229C18.1168 22.8035 19.6754 21.9979 20.4844 20.6959C21.3008 19.3875 21.1523 17.7375 20.1801 16.5258C19.193 15.3076 17.4785 14.6695 15.7863 14.8693C14.0941 15.0691 12.7211 16.0746 12.1051 17.4346C11.5558 18.6399 11.8082 20.0707 12.6543 21.1277C13.5152 22.1912 14.9254 22.81 16.4172 22.8229C16.9887 22.8293 16.9887 22.0559 16.4172 22.0494Z" fill="black"/>
<path d="M28.5668 11.131C25.6352 11.131 22.7109 11.131 19.7793 11.131C15.3484 11.131 10.9176 11.131 6.48672 11.131C5.74453 11.131 4.99492 11.131 4.25273 11.131C4.00781 11.131 3.80742 11.3051 3.80742 11.5178C3.78516 12.8842 2.53086 13.9734 0.964844 13.9928C0.719922 13.9928 0.519531 14.1668 0.519531 14.3795C0.519531 17.3314 0.519531 20.2834 0.519531 23.2418C0.519531 23.2547 0.519531 23.2611 0.519531 23.274C0.519531 23.4867 0.719922 23.6607 0.964844 23.6607C2.53828 23.6801 3.79258 24.7693 3.81484 26.1357C3.81484 26.3484 4.01523 26.5225 4.26016 26.5225C7.1918 26.5225 10.116 26.5225 13.0477 26.5225C17.4785 26.5225 21.9094 26.5225 26.3402 26.5225C27.0824 26.5225 27.832 26.5225 28.5742 26.5225C28.8191 26.5225 29.0195 26.3484 29.0195 26.1357C29.0418 24.7693 30.2961 23.6801 31.8695 23.6607C32.1145 23.6607 32.3148 23.4867 32.3148 23.274C32.3148 20.3221 32.3148 17.3701 32.3148 14.4117C32.3148 14.3988 32.3148 14.3924 32.3148 14.3795C32.3148 14.1668 32.1145 13.9928 31.8695 13.9928C30.2961 13.9734 29.0418 12.8842 29.0195 11.5178C29.0121 11.0215 28.1215 11.0215 28.1289 11.5178C28.1586 13.3031 29.8137 14.7404 31.8695 14.7662C31.7211 14.6373 31.5727 14.5084 31.4242 14.3795C31.4242 17.3314 31.4242 20.2834 31.4242 23.2418C31.4242 23.2547 31.4242 23.2611 31.4242 23.274C31.5727 23.1451 31.7211 23.0162 31.8695 22.8873C29.8137 22.9131 28.1586 24.3504 28.1289 26.1357C28.2773 26.0068 28.4258 25.8779 28.5742 25.749C25.6426 25.749 22.7184 25.749 19.7867 25.749C15.3559 25.749 10.925 25.749 6.49414 25.749C5.75195 25.749 5.00234 25.749 4.26016 25.749C4.40859 25.8779 4.55703 26.0068 4.70547 26.1357C4.67578 24.3504 3.02813 22.9131 0.964844 22.8873C1.11328 23.0162 1.26172 23.1451 1.41016 23.274C1.41016 20.3221 1.41016 17.3701 1.41016 14.4117C1.41016 14.3988 1.41016 14.3924 1.41016 14.3795C1.26172 14.5084 1.11328 14.6373 0.964844 14.7662C3.0207 14.7404 4.67578 13.3031 4.70547 11.5178C4.55703 11.6467 4.40859 11.7756 4.26016 11.9045C7.1918 11.9045 10.116 11.9045 13.0477 11.9045C17.4785 11.9045 21.9094 11.9045 26.3402 11.9045C27.0824 11.9045 27.832 11.9045 28.5742 11.9045C29.1457 11.9045 29.1457 11.131 28.5668 11.131Z" fill="#006838"/>
<path d="M4.25273 26.1293H3.19141C1.95937 26.1293 0.964844 25.2592 0.964844 24.1957V23.2676C2.7832 23.2676 4.25273 24.5502 4.25273 26.1293Z" fill="#006838"/>
<path d="M4.25274 25.7426C3.42149 25.7426 2.58282 25.8328 1.92227 25.2914C1.27657 24.7564 1.40274 23.9701 1.40274 23.2676C1.2543 23.3965 1.10587 23.5254 0.957428 23.6543C2.53087 23.6736 3.78516 24.7629 3.80743 26.1293C3.81485 26.6256 4.70547 26.6256 4.69805 26.1293C4.66837 24.3439 3.02071 22.9066 0.957428 22.8809C0.712506 22.8809 0.512115 23.0613 0.512115 23.2676C0.512115 23.577 0.512115 23.8799 0.512115 24.1893C0.512115 24.8145 0.801569 25.3881 1.29883 25.8393C2.1004 26.5676 3.19141 26.5225 4.25274 26.5225C4.83165 26.516 4.83165 25.7426 4.25274 25.7426Z" fill="#006838"/>
<path d="M4.25276 11.5178C4.25276 13.0969 2.7758 14.3795 0.957443 14.3795V13.4514C0.957443 12.3814 1.95197 11.5178 3.18401 11.5178H4.25276Z" fill="#006838"/>
<path d="M3.80744 11.5178C3.78517 12.8842 2.53087 13.9734 0.964857 13.9928C1.11329 14.1217 1.26173 14.2506 1.41017 14.3795C1.41017 13.6576 1.30626 12.9293 1.9297 12.3557C2.54572 11.7949 3.45119 11.9045 4.26017 11.9045C4.83165 11.9045 4.83165 11.131 4.26017 11.131C3.90392 11.131 3.55509 11.131 3.19884 11.131C2.47892 11.131 1.81837 11.3824 1.29884 11.8142C0.460169 12.5103 0.519544 13.4578 0.519544 14.3795C0.519544 14.5857 0.719935 14.7662 0.964857 14.7662C3.02072 14.7404 4.6758 13.3031 4.70548 11.5178C4.7129 11.0215 3.82228 11.0215 3.80744 11.5178Z" fill="#006838"/>
<path d="M31.8621 13.4578V14.386C30.0438 14.386 28.5668 13.1033 28.5668 11.5242H29.6356C30.8676 11.5178 31.8621 12.3879 31.8621 13.4578Z" fill="#006838"/>
<path d="M31.4168 13.4578C31.4168 13.7672 31.4168 14.0766 31.4168 14.3859C31.5652 14.257 31.7137 14.1281 31.8621 13.9992C30.2887 13.9799 29.0344 12.8906 29.0121 11.5242C28.8637 11.6531 28.7152 11.782 28.5668 11.9109C29.0344 11.9109 29.5465 11.8658 30.0141 11.9432C30.8379 12.085 31.402 12.7359 31.4168 13.4578C31.4316 13.9541 32.3223 13.9541 32.3074 13.4578C32.2852 12.5103 31.6395 11.6531 30.6152 11.2986C29.9621 11.073 29.2496 11.131 28.5668 11.131C28.3293 11.131 28.1215 11.3051 28.1215 11.5178C28.1512 13.3031 29.8063 14.7404 31.8621 14.7662C32.107 14.7662 32.3074 14.5857 32.3074 14.3795C32.3074 14.0701 32.3074 13.7607 32.3074 13.4514C32.3074 12.9551 31.4168 12.9551 31.4168 13.4578Z" fill="#006838"/>
<path d="M31.8621 23.2676V24.1957C31.8621 25.2656 30.8602 26.1293 29.6356 26.1293H28.5668C28.5668 24.5502 30.0438 23.2676 31.8621 23.2676Z" fill="#006838"/>
<path d="M31.4168 23.2676C31.4168 23.9895 31.5207 24.7178 30.8973 25.2914C30.2813 25.8522 29.3758 25.7426 28.5668 25.7426C28.7152 25.8715 28.8637 26.0004 29.0121 26.1293C29.0344 24.7629 30.2887 23.6736 31.8621 23.6543C32.4336 23.6479 32.4336 22.8744 31.8621 22.8809C29.8063 22.9067 28.1512 24.344 28.1215 26.1293C28.1215 26.342 28.3293 26.516 28.5668 26.516C28.9231 26.516 29.2719 26.516 29.6281 26.516C30.3481 26.516 31.0086 26.2647 31.5281 25.8328C32.3668 25.1367 32.3148 24.1893 32.3148 23.2676C32.3074 22.7713 31.4168 22.7713 31.4168 23.2676Z" fill="#006838"/>
<path d="M3.54023 9.57773C6.16757 9.57773 8.79492 9.57773 11.4148 9.57773C16.1574 9.57773 20.9 9.57773 25.6426 9.57773C27.3348 9.57773 29.0344 9.57773 30.7266 9.57773C31.8102 9.57773 33.0867 9.4037 33.7547 10.3447C34.059 10.7701 33.9996 11.2793 33.9996 11.7562C33.9996 12.4781 33.9996 13.2064 33.9996 13.9283C33.9996 15.9844 33.9996 18.034 33.9996 20.09C33.9996 21.3275 33.9996 22.565 33.9996 23.8025C33.9996 24.2988 34.8902 24.2988 34.8902 23.8025C34.8902 20.625 34.8902 17.441 34.8902 14.2635C34.8902 13.49 34.8902 12.723 34.8902 11.9496C34.8902 11.5564 34.9273 11.1504 34.8531 10.7637C34.6453 9.62929 33.4949 8.80429 32.1812 8.80429C31.8918 8.80429 31.5949 8.80429 31.3055 8.80429C27.5203 8.80429 23.7352 8.80429 19.95 8.80429C15.5043 8.80429 11.066 8.80429 6.62031 8.80429C5.59609 8.80429 4.57187 8.80429 3.54023 8.80429C2.96132 8.80429 2.96132 9.57773 3.54023 9.57773Z" fill="#006838"/>
<path d="M6.1379 7.25742C8.76524 7.25742 11.3926 7.25742 14.0125 7.25742C18.7551 7.25742 23.4977 7.25742 28.2402 7.25742C29.9324 7.25742 31.632 7.25742 33.3242 7.25742C34.4078 7.25742 35.6844 7.08339 36.3524 8.02441C36.6566 8.4498 36.5973 8.95898 36.5973 9.43593C36.5973 10.1578 36.5973 10.8861 36.5973 11.608C36.5973 13.6641 36.5973 15.7137 36.5973 17.7697C36.5973 19.0072 36.5973 20.2447 36.5973 21.4822C36.5973 21.9785 37.4879 21.9785 37.4879 21.4822C37.4879 18.3047 37.4879 15.1207 37.4879 11.9432C37.4879 11.1697 37.4879 10.4027 37.4879 9.62929C37.4879 9.23613 37.525 8.83007 37.4508 8.44335C37.243 7.30898 36.0926 6.48398 34.7789 6.48398C34.4895 6.48398 34.1926 6.48398 33.9031 6.48398C30.118 6.48398 26.3328 6.48398 22.5477 6.48398C18.102 6.48398 13.6637 6.48398 9.21798 6.48398C8.19376 6.48398 7.16954 6.48398 6.1379 6.48398C5.55899 6.48398 5.55899 7.25742 6.1379 7.25742Z" fill="#006838"/>
<path d="M20.5735 18.8267C20.5735 20.8183 18.7106 22.4361 16.4172 22.4361C14.1164 22.4361 12.261 20.8183 12.261 18.8267C12.261 16.8351 14.1238 15.2174 16.4172 15.2174C18.7106 15.2109 20.5735 16.8287 20.5735 18.8267Z" fill="#006838"/>
<path d="M20.1281 18.8267C20.1059 20.2769 19.0074 21.5338 17.4043 21.9334C15.7938 22.3394 14.0645 21.682 13.211 20.451C12.3426 19.2006 12.6321 17.5699 13.7899 16.5451C14.9625 15.501 16.8477 15.3269 18.2875 16.0424C19.4305 16.6096 20.1133 17.6924 20.1281 18.8267C20.1356 19.323 21.0262 19.323 21.0188 18.8267C20.9965 17.3508 20.0688 15.9973 18.5696 15.2947C17.0629 14.5857 15.1629 14.7146 13.7676 15.559C12.3649 16.4162 11.6301 17.9051 11.8602 19.3746C12.0903 20.8441 13.2481 22.0365 14.8141 22.5715C16.202 23.0484 17.8496 22.8293 19.0668 22.0945C20.2914 21.3469 21.0039 20.1223 21.0188 18.8267C21.0262 18.324 20.1356 18.324 20.1281 18.8267Z" fill="#006838"/>
</svg>
