<svg width="85" height="88" viewBox="0 0 85 88" fill="none" xmlns="http://www.w3.org/2000/svg">
<rect x="1" y="1" width="83" height="86" fill="white" stroke="black" stroke-width="2"/>
<path d="M48.9734 49.8894C48.8794 52.0518 48.3447 54.1735 47.401 56.1283C46.4573 58.0832 45.1239 59.8313 43.48 61.2688C41.1211 63.3055 38.1552 64.5351 35.0267 64.7731C34.48 64.8256 34.0534 64.8388 33.7867 64.8388H33.4667C32.64 64.9175 30.8934 64.8388 30.0267 64.8388C19.5334 64.8388 11.04 58.88 11.04 49.3119C11.04 42.0144 15.9734 31.7375 22.9467 27.2356C23.16 27.0913 23.3867 26.96 23.6 26.8288C23.9763 26.6171 24.282 26.3025 24.48 25.9231C24.6134 25.6767 24.6908 25.4048 24.7069 25.126C24.7231 24.8473 24.6775 24.5685 24.5734 24.3088C24.5338 24.1892 24.4801 24.0747 24.4134 23.9675C24.2267 23.6656 24.04 23.3375 23.8267 22.9963C21.8267 19.5969 19.0934 14.4125 21.2134 14.4125C24.3467 14.4125 26.7734 15.7381 30.1334 15.7381C33.4934 15.7381 34.96 14.4125 38.84 14.4125C41.4534 14.4125 38.6 19.5969 36.4534 22.9963C36.2267 23.3506 36.0134 23.6919 35.8134 23.9938C35.7467 24.0988 35.6934 24.2038 35.64 24.3088C35.5309 24.5655 35.478 24.8419 35.4849 25.1201C35.4918 25.3983 35.5583 25.672 35.68 25.9231C35.8727 26.3349 36.1892 26.6786 36.5867 26.9075C36.76 27.0125 36.9467 27.1306 37.12 27.2356C42.88 30.9631 47.0934 38.6806 48.5734 45.335C48.6667 45.7813 48.7467 46.2144 48.8267 46.6475C48.8534 46.8313 48.88 47.0281 48.9067 47.2119C49.003 48.1011 49.0253 48.9966 48.9734 49.8894Z" fill="#C1ECFB"/>
<path d="M73 35.2156V58.2894C73 60.35 67.4 62.03 60.4933 62.03C53.5867 62.03 48 60.35 48 58.2894V35.2156C48 37.2763 53.6 38.9563 60.4933 38.9563C67.3867 38.9563 73 37.2763 73 35.2156Z" fill="#F6CC7C"/>
<path d="M60.4987 38.9536C67.403 38.9536 73 37.2824 73 35.2209C73 33.1593 67.403 31.4881 60.4987 31.4881C53.5944 31.4881 47.9974 33.1593 47.9974 35.2209C47.9974 37.2824 53.5944 38.9536 60.4987 38.9536Z" fill="#FFB963"/>
<path d="M57.5734 58.3419V58.6437C57.576 61.0065 56.8666 63.317 55.535 65.2829C54.2034 67.2488 52.3094 68.7817 50.0925 69.6877C47.8757 70.5937 45.4356 70.8321 43.0811 70.3727C40.7266 69.9133 38.5634 68.7768 36.8652 67.107C35.167 65.4372 34.0101 63.309 33.5408 60.9918C33.0716 58.6746 33.3111 56.2724 34.229 54.0892C35.147 51.906 36.7021 50.0399 38.6977 48.7269C40.6933 47.4139 43.0397 46.7131 45.44 46.7131C46.3011 46.7111 47.1598 46.8035 48 46.9887C48.0267 46.9887 48.04 46.9887 48.0534 47.0019C49.9171 47.3994 51.6582 48.2272 53.1334 49.4169C53.4644 49.6841 53.7805 49.9689 54.08 50.27C55.0903 51.2772 55.9078 52.4554 56.4934 53.7481C56.6092 53.974 56.7116 54.2062 56.8 54.4437C57.1958 55.4767 57.4426 56.559 57.5334 57.6594C57.5467 57.8825 57.56 58.1187 57.5734 58.3419Z" fill="#FCAC44"/>
<path d="M46.5241 57.6646H44.0134C43.6294 57.6533 43.2651 57.4951 42.9976 57.2238C42.73 56.9524 42.5804 56.5891 42.5804 56.211C42.5804 55.8329 42.73 55.4696 42.9976 55.1983C43.2651 54.9269 43.6294 54.7688 44.0134 54.7574H46.5241C46.9154 54.7578 47.2906 54.911 47.5674 55.1834C47.8441 55.4558 47.9997 55.8251 48.0001 56.2104C48.0001 56.4714 48.1054 56.7218 48.2929 56.9064C48.4805 57.091 48.7348 57.1947 49.0001 57.1947C49.2653 57.1947 49.5196 57.091 49.7072 56.9064C49.8947 56.7218 50.0001 56.4714 50.0001 56.2104C49.999 55.3032 49.6324 54.4335 48.9808 53.792C48.3291 53.1506 47.4456 52.7897 46.5241 52.7887H46.2667V50.9C46.2667 50.6389 46.1614 50.3885 45.9738 50.2039C45.7863 50.0193 45.5319 49.9156 45.2667 49.9156C45.0015 49.9156 44.7472 50.0193 44.5596 50.2039C44.3721 50.3885 44.2667 50.6389 44.2667 50.9V52.7887H44.0134C43.1031 52.8062 42.2361 53.1745 41.5987 53.8144C40.9612 54.4543 40.6041 55.3148 40.6041 56.211C40.6041 57.1073 40.9612 57.9677 41.5987 58.6076C42.2361 59.2475 43.1031 59.6158 44.0134 59.6334H46.5241C46.9155 59.6334 47.2909 59.7864 47.5677 60.0589C47.8445 60.3314 48.0001 60.701 48.0001 61.0863C48.0001 61.4716 47.8445 61.8412 47.5677 62.1137C47.2909 62.3862 46.9155 62.5392 46.5241 62.5392H44.0134C43.8193 62.5396 43.627 62.5023 43.4475 62.4294C43.2681 62.3566 43.105 62.2496 42.9675 62.1147C42.8301 61.9798 42.721 61.8195 42.6465 61.643C42.572 61.4666 42.5336 61.2774 42.5334 61.0863C42.5334 60.8252 42.428 60.5749 42.2405 60.3902C42.053 60.2056 41.7986 60.1019 41.5334 60.1019C41.2682 60.1019 41.0138 60.2056 40.8263 60.3902C40.6387 60.5749 40.5334 60.8252 40.5334 61.0863C40.5344 61.9935 40.901 62.8632 41.5527 63.5047C42.2043 64.1461 43.0878 64.507 44.0094 64.508H44.2667V66.3954C44.2667 66.6564 44.3721 66.9068 44.5596 67.0914C44.7472 67.276 45.0015 67.3797 45.2667 67.3797C45.5319 67.3797 45.7863 67.276 45.9738 67.0914C46.1614 66.9068 46.2667 66.6564 46.2667 66.3954V64.508H46.5214C47.4433 64.508 48.3274 64.1475 48.9793 63.5058C49.6312 62.8641 49.9974 61.9938 49.9974 61.0863C49.9974 60.1788 49.6312 59.3085 48.9793 58.6668C48.3274 58.0251 47.4433 57.6646 46.5214 57.6646H46.5241Z" fill="#EB7729"/>
<path d="M45.4373 45.7235C43.1333 45.7225 40.8696 46.3182 38.8734 47.4508C38.7595 47.5155 38.6598 47.6016 38.5798 47.7043C38.4998 47.807 38.4412 47.9241 38.4072 48.0491C38.3732 48.1741 38.3645 48.3045 38.3817 48.4327C38.3989 48.561 38.4416 48.6847 38.5074 48.7967C38.5731 48.9088 38.6606 49.007 38.7649 49.0857C38.8692 49.1644 38.9882 49.2222 39.1152 49.2556C39.2422 49.2891 39.3746 49.2976 39.5049 49.2807C39.6352 49.2638 39.7609 49.2217 39.8747 49.157C42.3261 47.7618 45.2249 47.3372 47.9828 47.9693C50.7406 48.6015 53.1508 50.243 54.7239 52.5606C56.2971 54.8782 56.9153 57.6983 56.4531 60.4483C55.991 63.1983 54.483 65.6722 52.2355 67.3676C49.9879 69.063 47.1691 69.853 44.3514 69.5772C41.5337 69.3013 38.9282 67.9803 37.0638 65.8824C35.1995 63.7844 34.2161 61.0667 34.3132 58.2809C34.4103 55.4952 35.5806 52.8502 37.5867 50.8829C37.6824 50.7924 37.7588 50.6839 37.8115 50.5639C37.8642 50.444 37.892 50.3149 37.8935 50.1842C37.8949 50.0535 37.87 49.9238 37.82 49.8028C37.77 49.6817 37.696 49.5716 37.6023 49.479C37.5087 49.3864 37.3972 49.313 37.2744 49.2632C37.1517 49.2134 37.0201 49.1882 36.8873 49.189C36.7545 49.1899 36.6233 49.2167 36.5011 49.268C36.379 49.3193 36.2685 49.394 36.176 49.4878C34.0219 51.5978 32.6781 54.3781 32.3737 57.3545C32.0693 60.3309 32.8232 63.319 34.5068 65.8094C36.1905 68.2997 38.6996 70.1381 41.6063 71.0109C44.513 71.8837 47.6372 71.7369 50.4462 70.5956C53.2553 69.4542 55.5751 67.389 57.0102 64.7522C58.4452 62.1153 58.9066 59.07 58.3157 56.1357C57.7247 53.2014 56.118 50.5597 53.7695 48.6612C51.421 46.7627 48.4763 45.7249 45.4373 45.7248V45.7235Z" fill="#1A1A1A"/>
<path d="M46.524 62.5392H44.0133C43.8192 62.5396 43.6269 62.5023 43.4475 62.4294C43.268 62.3566 43.1049 62.2496 42.9674 62.1147C42.83 61.9798 42.7209 61.8195 42.6464 61.643C42.5719 61.4666 42.5335 61.2774 42.5333 61.0863C42.5333 60.8252 42.428 60.5749 42.2404 60.3902C42.0529 60.2056 41.7985 60.1019 41.5333 60.1019C41.2681 60.1019 41.0138 60.2056 40.8262 60.3902C40.6387 60.5749 40.5333 60.8252 40.5333 61.0863C40.5344 61.9935 40.901 62.8632 41.5526 63.5047C42.2042 64.1461 43.0878 64.507 44.0093 64.508H44.2667V66.3954C44.2667 66.6564 44.372 66.9068 44.5596 67.0914C44.7471 67.276 45.0015 67.3797 45.2667 67.3797C45.5319 67.3797 45.7862 67.276 45.9738 67.0914C46.1613 66.9068 46.2667 66.6564 46.2667 66.3954V64.508H46.5213C47.4432 64.508 48.3274 64.1475 48.9792 63.5058C49.6311 62.8641 49.9973 61.9938 49.9973 61.0863C49.9973 60.1788 49.6311 59.3085 48.9792 58.6668C48.3274 58.0251 47.4432 57.6646 46.5213 57.6646H44.0133C43.6294 57.6533 43.265 57.4951 42.9975 57.2238C42.73 56.9524 42.5804 56.5892 42.5804 56.211C42.5804 55.8329 42.73 55.4696 42.9975 55.1983C43.265 54.9269 43.6294 54.7688 44.0133 54.7574H46.524C46.9154 54.7578 47.2906 54.911 47.5673 55.1834C47.844 55.4558 47.9996 55.8251 48 56.2104C48 56.4714 48.1054 56.7218 48.2929 56.9064C48.4804 57.091 48.7348 57.1947 49 57.1947C49.2652 57.1947 49.5196 57.091 49.7071 56.9064C49.8946 56.7218 50 56.4714 50 56.2104C49.9989 55.3032 49.6324 54.4335 48.9807 53.792C48.3291 53.1506 47.4456 52.7897 46.524 52.7887H46.2667V50.9C46.2667 50.6389 46.1613 50.3885 45.9738 50.2039C45.7862 50.0193 45.5319 49.9156 45.2667 49.9156C45.0015 49.9156 44.7471 50.0193 44.5596 50.2039C44.372 50.3885 44.2667 50.6389 44.2667 50.9V52.7887H44.0133C43.1031 52.8062 42.2361 53.1745 41.5986 53.8144C40.9612 54.4543 40.6041 55.3148 40.6041 56.211C40.6041 57.1073 40.9612 57.9677 41.5986 58.6076C42.2361 59.2475 43.1031 59.6158 44.0133 59.6334H46.524C46.9155 59.6334 47.2909 59.7864 47.5677 60.0589C47.8445 60.3314 48 60.701 48 61.0863C48 61.4716 47.8445 61.8412 47.5677 62.1137C47.2909 62.3862 46.9155 62.5392 46.524 62.5392ZM69.2227 31.5236C68.9701 31.4626 68.7033 31.5009 68.4789 31.6304C68.2545 31.7598 68.0902 31.9703 68.0208 32.217C67.9514 32.4637 67.9824 32.7274 68.1072 32.952C68.232 33.1766 68.4408 33.3445 68.6893 33.4201C71.3947 34.1604 72.004 34.9951 72.004 35.2209C72.004 36.0425 68.0907 37.9692 60.504 37.9692C52.9173 37.9692 49.0027 36.0425 49.0027 35.2209C49.0027 34.3992 52.9147 32.4725 60.504 32.4725C62.2989 32.4661 64.0917 32.5903 65.868 32.8439C66.1267 32.8742 66.3871 32.8041 66.5941 32.6485C66.8011 32.4928 66.9384 32.2639 66.9767 32.0102C67.0151 31.7566 66.9515 31.4983 66.7995 31.29C66.6475 31.0818 66.4191 30.94 66.1627 30.8949C64.2887 30.6279 62.3975 30.4963 60.504 30.5011C54.0013 30.5011 47.0027 31.9777 47.0027 35.2182V42.8767C47.0027 46.1172 54.0013 47.5938 60.504 47.5938C64.8747 47.5938 69.4613 46.9231 72.004 45.5004V46.7052C72.004 47.5269 68.0907 49.4536 60.504 49.4536C59.6333 49.4536 58.7853 49.4274 57.9707 49.3749C57.706 49.3597 57.4458 49.4475 57.2463 49.6193C57.0468 49.7912 56.9238 50.0334 56.904 50.2936C56.8948 50.423 56.9116 50.5529 56.9536 50.6758C56.9956 50.7987 57.0619 50.9123 57.1486 51.0099C57.2354 51.1075 57.3409 51.1872 57.4591 51.2445C57.5773 51.3018 57.7058 51.3355 57.8373 51.3436C58.6973 51.3987 59.5893 51.4276 60.504 51.4276C64.8747 51.4276 69.4613 50.7569 72.004 49.3276V50.5325C72.004 51.3541 68.0907 53.2887 60.504 53.2887H60.1747C60.1187 53.2887 60.0867 53.2887 59.908 53.2887C59.6457 53.2905 59.3939 53.3898 59.2029 53.5668C59.012 53.7438 58.8962 53.9853 58.8787 54.2429C58.8711 54.5041 58.9691 54.7575 59.151 54.9477C59.333 55.1378 59.5841 55.2493 59.8493 55.2575C59.9827 55.2575 60.0667 55.2575 60.1227 55.2575H60.256H60.5147C64.8853 55.2575 69.472 54.5855 72.0147 53.1575V54.3624C72.0147 55.184 68.1013 57.1107 60.5147 57.1107C60.2495 57.1107 59.9951 57.2145 59.8076 57.3991C59.62 57.5837 59.5147 57.834 59.5147 58.0951C59.5147 58.3562 59.62 58.6066 59.8076 58.7912C59.9951 58.9758 60.2495 59.0795 60.5147 59.0795C64.8853 59.0795 69.472 58.4075 72.0147 56.9861V58.2867C72.0147 59.1084 68.1013 61.0351 60.5147 61.0351H60.156C59.8952 61.0462 59.6478 61.1518 59.4612 61.3316C59.2747 61.5113 59.1622 61.7526 59.1453 62.009C59.1428 62.27 59.2456 62.5213 59.4311 62.7078C59.6165 62.8943 59.8696 63.0008 60.1347 63.0039H60.5147C67.0013 63.0078 74 61.5312 74 58.2907V35.2209C74 34.1315 73.1707 32.6064 69.2227 31.5236ZM60.5 39.938C64.8707 39.938 69.4573 39.2673 72 37.8446V39.0494C72 39.8711 68.0867 41.8057 60.5 41.8057C52.9133 41.8057 48.9987 39.8776 48.9987 39.0494V37.8446C51.5413 39.2673 56.1333 39.938 60.5 39.938ZM60.5 45.6277C52.9107 45.6277 48.9987 43.7009 48.9987 42.8793V41.6744C51.5413 43.0972 56.1267 43.7744 60.5 43.7744C64.8733 43.7744 69.4573 43.1037 72 41.6744V42.8793C72 43.7009 68.0867 45.6277 60.5 45.6277ZM31.0667 63.8675C30.7147 63.8806 30.36 63.8885 30 63.8885C19.4 63.8885 12 57.9022 12 49.3316C12 42.3425 16.8 32.0066 23.9587 27.7606C24.056 27.7016 24.1373 27.6294 24.2253 27.5637H32.4C32.6652 27.5637 32.9196 27.46 33.1071 27.2754C33.2946 27.0908 33.4 26.8404 33.4 26.5794C33.4 26.3183 33.2946 26.0679 33.1071 25.8833C32.9196 25.6987 32.6652 25.595 32.4 25.595H25.4867C25.6231 24.8551 25.4676 24.0918 25.052 23.4609C21.672 18.3067 21.0147 15.9875 21.1373 15.3864C21.1502 15.3938 21.1651 15.397 21.18 15.3956C22.6817 15.4059 24.1739 15.6295 25.6107 16.0597C27.0007 16.4756 28.4433 16.6965 29.896 16.7159C31.5383 16.6763 33.1695 16.4391 34.7533 16.0098C36.0085 15.6696 37.2973 15.4636 38.5973 15.3956C38.5613 16.1371 37.8147 18.3277 35.232 22.6668H27.6C27.3348 22.6668 27.0804 22.7705 26.8929 22.9551C26.7054 23.1397 26.6 23.3901 26.6 23.6512C26.6 23.9123 26.7054 24.1626 26.8929 24.3472C27.0804 24.5318 27.3348 24.6356 27.6 24.6356H34.3493C34.3 25.0024 34.3218 25.3752 34.4133 25.7341C34.5205 26.1419 34.7093 26.5244 34.9687 26.8594C35.2281 27.1943 35.5529 27.4748 35.924 27.6845C39.5237 29.9923 42.4428 33.1922 44.388 36.9626C44.4488 37.0795 44.5328 37.1832 44.635 37.2677C44.7372 37.3521 44.8556 37.4156 44.9831 37.4543C45.1106 37.4931 45.2446 37.5063 45.3774 37.4933C45.5102 37.4802 45.639 37.4411 45.7562 37.3783C45.8734 37.3155 45.9766 37.2302 46.0598 37.1276C46.143 37.0249 46.2045 36.9068 46.2406 36.7804C46.2768 36.6539 46.2869 36.5217 46.2703 36.3913C46.2537 36.261 46.2107 36.1352 46.144 36.0215C44.0269 31.9394 40.8535 28.4792 36.944 25.9901C36.8007 25.9116 36.6746 25.8059 36.5732 25.679C36.4718 25.5522 36.3971 25.4067 36.3533 25.2511C36.3192 25.1205 36.3124 24.9844 36.3332 24.851C36.3541 24.7177 36.4022 24.5899 36.4747 24.4754C41.4933 16.2566 40.6827 14.8456 40.3413 14.2379C40.1893 13.979 39.9684 13.7659 39.7025 13.6213C39.4365 13.4768 39.1356 13.4064 38.832 13.4176C37.299 13.461 35.7769 13.6862 34.2987 14.0883C32.8645 14.4822 31.387 14.7026 29.8987 14.7446C28.6187 14.7222 27.3484 14.522 26.1253 14.15C24.521 13.6784 22.8569 13.4327 21.1827 13.4202C20.825 13.3974 20.4681 13.4747 20.1531 13.6431C19.8381 13.8114 19.578 14.0641 19.4027 14.3718C19.0667 14.9795 18.1733 16.5939 23.3747 24.524C23.4529 24.6382 23.5062 24.7672 23.5312 24.9027C23.5562 25.0383 23.5524 25.1775 23.52 25.3115C23.4786 25.4713 23.4049 25.6213 23.3031 25.7523C23.2014 25.8834 23.0738 25.9928 22.928 26.0741C15.2 30.6639 10 41.8057 10 49.3316C10 58.9062 18.4133 65.8625 30 65.8625C30.384 65.8625 30.7653 65.8546 31.144 65.8389C31.2753 65.8338 31.4043 65.8033 31.5237 65.7491C31.643 65.695 31.7504 65.6182 31.8396 65.5232C31.9288 65.4282 31.9981 65.3168 32.0436 65.1954C32.0891 65.0741 32.1098 64.945 32.1047 64.8158C32.0995 64.6865 32.0685 64.5595 32.0135 64.442C31.9585 64.3245 31.8805 64.2189 31.784 64.1311C31.6875 64.0432 31.5743 63.975 31.451 63.9302C31.3277 63.8855 31.1967 63.865 31.0653 63.8701L31.0667 63.8675Z" fill="#1A1A1A"/>
</svg>
