<svg width="330" height="106" viewBox="0 0 330 106" fill="none" xmlns="http://www.w3.org/2000/svg">
<rect x="100" width="221" height="106" fill="#3DB3C6"/>
<rect x="1" y="1" width="98" height="104" fill="#3DB3C6" fill-opacity="0.11" stroke="black" stroke-width="2"/>
<path d="M123.993 25.1836C123.487 20.9844 120.309 18.5696 116.101 18.5696C111.298 18.5696 107.631 21.9609 107.631 27.9091C107.631 33.8395 111.236 37.2486 116.101 37.2486C120.762 37.2486 123.576 34.1502 123.993 30.8033L120.105 30.7855C119.741 32.7298 118.214 33.8484 116.163 33.8484C113.402 33.8484 111.529 31.7976 111.529 27.9091C111.529 24.1271 113.375 21.9698 116.189 21.9698C118.294 21.9698 119.812 23.1861 120.105 25.1836H123.993ZM135.09 31.1939C135.099 33.0227 133.847 33.9815 132.489 33.9815C131.059 33.9815 130.136 32.9783 130.127 31.3714V23.3636H126.345V32.0462C126.354 35.2333 128.219 37.1776 130.962 37.1776C133.013 37.1776 134.486 36.1211 135.099 34.5231H135.241V37H138.872V23.3636H135.09V31.1939ZM141.564 37H145.346V29.2852C145.346 27.6072 146.571 26.4531 148.24 26.4531C148.764 26.4531 149.483 26.5419 149.838 26.6573V23.3015C149.501 23.2216 149.03 23.1683 148.648 23.1683C147.121 23.1683 145.87 24.0561 145.372 25.7429H145.23V23.3636H141.564V37ZM151.46 37H155.242V29.2852C155.242 27.6072 156.467 26.4531 158.136 26.4531C158.66 26.4531 159.379 26.5419 159.734 26.6573V23.3015C159.397 23.2216 158.926 23.1683 158.544 23.1683C157.017 23.1683 155.766 24.0561 155.269 25.7429H155.126V23.3636H151.46V37ZM166.936 37.2663C170.309 37.2663 172.582 35.6239 173.115 33.0938L169.617 32.8629C169.235 33.9016 168.259 34.4432 166.998 34.4432C165.107 34.4432 163.908 33.1914 163.908 31.1584V31.1495H173.195V30.1108C173.195 25.4766 170.389 23.1861 166.785 23.1861C162.772 23.1861 160.171 26.0359 160.171 30.244C160.171 34.5675 162.737 37.2663 166.936 37.2663ZM163.908 28.8058C163.988 27.2521 165.169 26.0092 166.847 26.0092C168.489 26.0092 169.626 27.1811 169.635 28.8058H163.908ZM179.111 29.1165C179.12 27.3587 180.168 26.3288 181.695 26.3288C183.213 26.3288 184.127 27.3232 184.118 28.9922V37H187.9V28.3175C187.9 25.1392 186.036 23.1861 183.195 23.1861C181.171 23.1861 179.706 24.1804 179.094 25.7695H178.934V23.3636H175.329V37H179.111V29.1165ZM197.801 23.3636H195.235V20.0966H191.453V23.3636H189.589V26.2045H191.453V33.3068C191.436 35.979 193.256 37.3018 195.999 37.1864C196.975 37.1509 197.668 36.9556 198.05 36.8313L197.455 34.017C197.268 34.0526 196.869 34.1413 196.514 34.1413C195.759 34.1413 195.235 33.8572 195.235 32.8097V26.2045H197.801V23.3636ZM205.455 37H209.299V31.1051H212.531C216.712 31.1051 219.145 28.6104 219.145 24.9794C219.145 21.3661 216.757 18.8182 212.628 18.8182H205.455V37ZM209.299 28.0245V21.9609H211.892C214.111 21.9609 215.185 23.1683 215.185 24.9794C215.185 26.7816 214.111 28.0245 211.909 28.0245H209.299ZM229.982 31.1939C229.991 33.0227 228.739 33.9815 227.381 33.9815C225.951 33.9815 225.028 32.9783 225.019 31.3714V23.3636H221.237V32.0462C221.246 35.2333 223.11 37.1776 225.854 37.1776C227.905 37.1776 229.378 36.1211 229.991 34.5231H230.133V37H233.764V23.3636H229.982V31.1939ZM236.456 37H240.238V29.2852C240.238 27.6072 241.463 26.4531 243.132 26.4531C243.656 26.4531 244.375 26.5419 244.73 26.6573V23.3015C244.392 23.2216 243.922 23.1683 243.54 23.1683C242.013 23.1683 240.761 24.0561 240.264 25.7429H240.122V23.3636H236.456V37ZM251.878 37.2663C255.509 37.2663 257.791 35.1357 257.968 32.0018H254.4C254.178 33.4577 253.219 34.2745 251.923 34.2745C250.156 34.2745 249.011 32.7919 249.011 30.1818C249.011 27.6072 250.165 26.1335 251.923 26.1335C253.308 26.1335 254.195 27.0479 254.4 28.4062H257.968C257.809 25.2546 255.421 23.1861 251.861 23.1861C247.723 23.1861 245.167 26.0536 245.167 30.2351C245.167 34.381 247.679 37.2663 251.878 37.2663ZM263.839 29.1165C263.847 27.3587 264.922 26.3288 266.466 26.3288C268.002 26.3288 268.908 27.3143 268.899 28.9922V37H272.681V28.3175C272.69 25.1214 270.808 23.1861 267.967 23.1861C265.898 23.1861 264.513 24.1626 263.892 25.7695H263.732V18.8182H260.057V37H263.839V29.1165ZM279.212 37.2575C281.228 37.2575 282.533 36.3786 283.198 35.109H283.305V37H286.892V27.8026C286.892 24.5533 284.14 23.1861 281.103 23.1861C277.836 23.1861 275.688 24.7486 275.164 27.2344L278.662 27.5185C278.919 26.6129 279.727 25.9471 281.086 25.9471C282.373 25.9471 283.11 26.5952 283.11 27.7138V27.767C283.11 28.646 282.178 28.7614 279.807 28.9922C277.108 29.2408 274.685 30.1463 274.685 33.1914C274.685 35.8903 276.611 37.2575 279.212 37.2575ZM280.295 34.6474C279.132 34.6474 278.298 34.1058 278.298 33.0671C278.298 32.0018 279.177 31.478 280.509 31.2915C281.334 31.1761 282.684 30.9808 283.136 30.679V32.1261C283.136 33.5554 281.956 34.6474 280.295 34.6474ZM300.838 27.2521C300.501 24.7397 298.477 23.1861 295.032 23.1861C291.543 23.1861 289.244 24.8018 289.253 27.4297C289.244 29.4716 290.531 30.7944 293.195 31.3271L295.556 31.7976C296.746 32.0373 297.287 32.4723 297.305 33.1559C297.287 33.9638 296.408 34.5408 295.086 34.5408C293.736 34.5408 292.839 33.9638 292.609 32.854L288.889 33.0494C289.244 35.6594 291.463 37.2663 295.077 37.2663C298.61 37.2663 301.14 35.4641 301.149 32.7741C301.14 30.8033 299.853 29.6225 297.207 29.081L294.739 28.5838C293.47 28.3086 292.999 27.8736 293.008 27.2166C292.999 26.3999 293.923 25.8672 295.094 25.8672C296.408 25.8672 297.19 26.5863 297.376 27.4652L300.838 27.2521ZM309.412 37.2663C312.785 37.2663 315.058 35.6239 315.591 33.0938L312.093 32.8629C311.711 33.9016 310.735 34.4432 309.474 34.4432C307.583 34.4432 306.384 33.1914 306.384 31.1584V31.1495H315.671V30.1108C315.671 25.4766 312.865 23.1861 309.261 23.1861C305.248 23.1861 302.647 26.0359 302.647 30.244C302.647 34.5675 305.212 37.2663 309.412 37.2663ZM306.384 28.8058C306.464 27.2521 307.645 26.0092 309.323 26.0092C310.965 26.0092 312.102 27.1811 312.111 28.8058H306.384Z" fill="white"/>
<path d="M73.8994 37.5258H19.5127C19.5127 41.1625 16.209 44.1164 12.1416 44.1164V64.5859C16.209 64.5859 19.5127 67.5398 19.5127 71.1765H73.8994C73.8994 67.5398 77.2031 64.5859 81.2705 64.5859V44.1164C77.2031 44.1164 73.8994 41.1625 73.8994 37.5258ZM46.7227 62.6711C41.5762 62.6711 37.4258 58.9453 37.4258 54.3586C37.4258 49.7719 41.5928 46.0461 46.7227 46.0461C51.8525 46.0461 56.0195 49.7719 56.0195 54.3586C56.0195 58.9453 51.8525 62.6711 46.7227 62.6711Z" fill="#39B54A"/>
<path d="M46.7227 61.7805C42.9873 61.7359 39.75 59.5391 38.7041 56.3328C37.6582 53.1117 39.3516 49.6531 42.5225 47.9461C45.7432 46.2094 49.9434 46.7883 52.583 49.1039C55.2725 51.4492 55.7207 55.2195 53.8779 58.0992C52.4336 60.4 49.6279 61.7508 46.7227 61.7805C45.4443 61.7953 45.4443 63.5766 46.7227 63.5617C50.5244 63.5172 54.0107 61.6617 55.8203 58.6633C57.6465 55.65 57.3145 51.85 55.1397 49.0594C52.9316 46.2539 49.0967 44.7844 45.3115 45.2445C41.5264 45.7047 38.4551 48.0203 37.0772 51.1523C35.8486 53.9281 36.4131 57.2234 38.3057 59.6578C40.2315 62.107 43.3858 63.532 46.7227 63.5617C48.001 63.5766 48.001 61.7953 46.7227 61.7805Z" fill="black"/>
<path d="M73.8994 36.6351C67.3418 36.6351 60.8008 36.6351 54.2432 36.6351C44.332 36.6351 34.4209 36.6351 24.5098 36.6351C22.8496 36.6351 21.1729 36.6351 19.5127 36.6351C18.9648 36.6351 18.5166 37.0359 18.5166 37.5258C18.4668 40.6726 15.6611 43.1812 12.1582 43.2258C11.6104 43.2258 11.1621 43.6265 11.1621 44.1164C11.1621 50.9148 11.1621 57.7133 11.1621 64.5265C11.1621 64.5562 11.1621 64.5711 11.1621 64.6008C11.1621 65.0906 11.6104 65.4914 12.1582 65.4914C15.6777 65.5359 18.4834 68.0445 18.5332 71.1914C18.5332 71.6812 18.9814 72.082 19.5293 72.082C26.0869 72.082 32.6279 72.082 39.1855 72.082C49.0967 72.082 59.0078 72.082 68.9189 72.082C70.5791 72.082 72.2559 72.082 73.916 72.082C74.4639 72.082 74.9121 71.6812 74.9121 71.1914C74.9619 68.0445 77.7676 65.5359 81.2871 65.4914C81.835 65.4914 82.2832 65.0906 82.2832 64.6008C82.2832 57.8023 82.2832 51.0039 82.2832 44.1906C82.2832 44.1609 82.2832 44.1461 82.2832 44.1164C82.2832 43.6265 81.835 43.2258 81.2871 43.2258C77.7676 43.1812 74.9619 40.6726 74.9121 37.5258C74.8955 36.3828 72.9033 36.3828 72.9199 37.5258C72.9863 41.6375 76.6885 44.9476 81.2871 45.007C80.9551 44.7101 80.623 44.4133 80.291 44.1164C80.291 50.9148 80.291 57.7133 80.291 64.5265C80.291 64.5562 80.291 64.5711 80.291 64.6008C80.623 64.3039 80.9551 64.007 81.2871 63.7101C76.6885 63.7695 72.9863 67.0797 72.9199 71.1914C73.252 70.8945 73.584 70.5976 73.916 70.3008C67.3584 70.3008 60.8174 70.3008 54.2598 70.3008C44.3486 70.3008 34.4375 70.3008 24.5264 70.3008C22.8662 70.3008 21.1895 70.3008 19.5293 70.3008C19.8613 70.5976 20.1934 70.8945 20.5254 71.1914C20.459 67.0797 16.7734 63.7695 12.1582 63.7101C12.4902 64.007 12.8223 64.3039 13.1543 64.6008C13.1543 57.8023 13.1543 51.0039 13.1543 44.1906C13.1543 44.1609 13.1543 44.1461 13.1543 44.1164C12.8223 44.4133 12.4902 44.7101 12.1582 45.007C16.7568 44.9476 20.459 41.6375 20.5254 37.5258C20.1934 37.8226 19.8613 38.1195 19.5293 38.4164C26.0869 38.4164 32.6279 38.4164 39.1855 38.4164C49.0967 38.4164 59.0078 38.4164 68.9189 38.4164C70.5791 38.4164 72.2559 38.4164 73.916 38.4164C75.1943 38.4164 75.1943 36.6351 73.8994 36.6351Z" fill="#006838"/>
<path d="M19.5127 71.1766H17.1387C14.3828 71.1766 12.1582 69.1727 12.1582 66.7234V64.5859C16.2256 64.5859 19.5127 67.5398 19.5127 71.1766Z" fill="#006838"/>
<path d="M19.5127 70.2859C17.6533 70.2859 15.7773 70.4937 14.2998 69.2469C12.8555 68.0148 13.1377 66.2039 13.1377 64.5859C12.8057 64.8828 12.4736 65.1797 12.1416 65.4766C15.6611 65.5211 18.4668 68.0297 18.5166 71.1766C18.5332 72.3195 20.5254 72.3195 20.5088 71.1766C20.4424 67.0648 16.7568 63.7547 12.1416 63.6953C11.5937 63.6953 11.1455 64.1109 11.1455 64.5859C11.1455 65.2984 11.1455 65.9961 11.1455 66.7086C11.1455 68.1484 11.793 69.4695 12.9053 70.5086C14.6982 72.1859 17.1387 72.082 19.5127 72.082C20.8076 72.0672 20.8076 70.2859 19.5127 70.2859Z" fill="#006838"/>
<path d="M19.5127 37.5258C19.5127 41.1625 16.209 44.1164 12.1416 44.1164V41.9789C12.1416 39.5148 14.3662 37.5258 17.1221 37.5258H19.5127Z" fill="#006838"/>
<path d="M18.5166 37.5258C18.4668 40.6726 15.6611 43.1812 12.1582 43.2258C12.4902 43.5226 12.8223 43.8195 13.1543 44.1164C13.1543 42.4539 12.9219 40.7765 14.3164 39.4554C15.6943 38.164 17.7197 38.4164 19.5293 38.4164C20.8076 38.4164 20.8076 36.6351 19.5293 36.6351C18.7324 36.6351 17.9521 36.6351 17.1553 36.6351C15.5449 36.6351 14.0674 37.214 12.9053 38.2086C11.0293 39.8117 11.1621 41.9937 11.1621 44.1164C11.1621 44.5914 11.6104 45.007 12.1582 45.007C16.7568 44.9476 20.459 41.6375 20.5254 37.5258C20.542 36.3828 18.5498 36.3828 18.5166 37.5258Z" fill="#006838"/>
<path d="M81.2705 41.9938V44.1313C77.2031 44.1313 73.8994 41.1774 73.8994 37.5407H76.29C79.0459 37.5258 81.2705 39.5297 81.2705 41.9938Z" fill="#006838"/>
<path d="M80.2744 41.9938C80.2744 42.7063 80.2744 43.4188 80.2744 44.1313C80.6064 43.8344 80.9385 43.5375 81.2705 43.2406C77.751 43.1961 74.9453 40.6875 74.8955 37.5406C74.5635 37.8375 74.2314 38.1344 73.8994 38.4313C74.9453 38.4313 76.0908 38.3273 77.1367 38.5055C78.9795 38.832 80.2412 40.3313 80.2744 41.9938C80.3076 43.1367 82.2998 43.1367 82.2666 41.9938C82.2168 39.8117 80.7725 37.8375 78.4814 37.0211C77.0205 36.5016 75.4268 36.6352 73.8994 36.6352C73.3682 36.6352 72.9033 37.0359 72.9033 37.5258C72.9697 41.6375 76.6719 44.9477 81.2705 45.007C81.8184 45.007 82.2666 44.5914 82.2666 44.1164C82.2666 43.4039 82.2666 42.6914 82.2666 41.9789C82.2666 40.8359 80.2744 40.8359 80.2744 41.9938Z" fill="#006838"/>
<path d="M81.2705 64.5859V66.7234C81.2705 69.1875 79.0293 71.1766 76.29 71.1766H73.8994C73.8994 67.5398 77.2031 64.5859 81.2705 64.5859Z" fill="#006838"/>
<path d="M80.2744 64.5859C80.2744 66.2484 80.5068 67.9258 79.1123 69.2469C77.7344 70.5383 75.709 70.2859 73.8994 70.2859C74.2314 70.5828 74.5635 70.8797 74.8955 71.1765C74.9453 68.0297 77.751 65.5211 81.2705 65.4765C82.5488 65.4617 82.5488 63.6804 81.2705 63.6953C76.6719 63.7547 72.9697 67.0648 72.9033 71.1765C72.9033 71.6664 73.3682 72.0672 73.8994 72.0672C74.6963 72.0672 75.4766 72.0672 76.2734 72.0672C77.8838 72.0672 79.3613 71.4883 80.5234 70.4937C82.3994 68.8906 82.2832 66.7086 82.2832 64.5859C82.2666 63.4429 80.2744 63.4429 80.2744 64.5859Z" fill="#006838"/>
<path d="M17.9189 33.0578C23.7959 33.0578 29.6729 33.0578 35.5332 33.0578C46.1416 33.0578 56.75 33.0578 67.3584 33.0578C71.1436 33.0578 74.9453 33.0578 78.7305 33.0578C81.1543 33.0578 84.0098 32.657 85.5039 34.8242C86.1846 35.8039 86.0518 36.9765 86.0518 38.075C86.0518 39.7375 86.0518 41.4148 86.0518 43.0773C86.0518 47.8125 86.0518 52.5328 86.0518 57.268C86.0518 60.118 86.0518 62.968 86.0518 65.818C86.0518 66.9609 88.0439 66.9609 88.0439 65.818C88.0439 58.5 88.0439 51.1672 88.0439 43.8492C88.0439 42.068 88.0439 40.3015 88.0439 38.5203C88.0439 37.6148 88.127 36.6797 87.9609 35.789C87.4961 33.1765 84.9229 31.2766 81.9844 31.2766C81.3369 31.2766 80.6728 31.2766 80.0254 31.2766C71.5586 31.2766 63.0918 31.2766 54.625 31.2766C44.6807 31.2766 34.7529 31.2766 24.8086 31.2766C22.5176 31.2766 20.2266 31.2766 17.9189 31.2766C16.624 31.2766 16.624 33.0578 17.9189 33.0578Z" fill="#006838"/>
<path d="M23.7295 27.7141C29.6064 27.7141 35.4834 27.7141 41.3438 27.7141C51.9522 27.7141 62.5606 27.7141 73.1689 27.7141C76.9541 27.7141 80.7559 27.7141 84.541 27.7141C86.9649 27.7141 89.8203 27.3133 91.3145 29.4805C91.9951 30.4601 91.8623 31.6328 91.8623 32.7312C91.8623 34.3937 91.8623 36.0711 91.8623 37.7336C91.8623 42.4687 91.8623 47.1891 91.8623 51.9242C91.8623 54.7742 91.8623 57.6242 91.8623 60.4742C91.8623 61.6172 93.8545 61.6172 93.8545 60.4742C93.8545 53.1562 93.8545 45.8234 93.8545 38.5055C93.8545 36.7242 93.8545 34.9578 93.8545 33.1765C93.8545 32.2711 93.9375 31.3359 93.7715 30.4453C93.3066 27.8328 90.7334 25.9328 87.7949 25.9328C87.1475 25.9328 86.4834 25.9328 85.8359 25.9328C77.3691 25.9328 68.9023 25.9328 60.4356 25.9328C50.4912 25.9328 40.5635 25.9328 30.6191 25.9328C28.3281 25.9328 26.0371 25.9328 23.7295 25.9328C22.4346 25.9328 22.4346 27.7141 23.7295 27.7141Z" fill="#006838"/>
<path d="M56.0196 54.3586C56.0196 58.9453 51.8526 62.6711 46.7227 62.6711C41.5762 62.6711 37.4258 58.9453 37.4258 54.3586C37.4258 49.7718 41.5928 46.0461 46.7227 46.0461C51.8526 46.0312 56.0196 49.757 56.0196 54.3586Z" fill="#006838"/>
<path d="M55.0235 54.3586C54.9737 57.6984 52.5166 60.593 48.9307 61.5133C45.3282 62.4484 41.46 60.9344 39.5508 58.0992C37.6084 55.2195 38.2559 51.4641 40.8457 49.1039C43.4688 46.6992 47.6856 46.2984 50.9063 47.9461C53.4629 49.2523 54.9903 51.7461 55.0235 54.3586C55.0401 55.5016 57.0323 55.5016 57.0157 54.3586C56.9659 50.9594 54.8907 47.8422 51.5371 46.2242C48.167 44.5914 43.917 44.8883 40.7959 46.8328C37.6582 48.807 36.0147 52.2359 36.5293 55.6203C37.044 59.0047 39.6338 61.7508 43.1367 62.9828C46.2412 64.0812 49.9268 63.5766 52.6494 61.8844C55.3887 60.1625 56.9825 57.3422 57.0157 54.3586C57.0323 53.2008 55.0401 53.2008 55.0235 54.3586Z" fill="#006838"/>
</svg>
