<svg width="380" height="68" viewBox="0 0 380 68" fill="none" xmlns="http://www.w3.org/2000/svg">
<rect x="-3" width="383" height="68" fill="white" fill-opacity="0.8"/>
<path d="M160.435 26.1797H164.239C164.164 22.4936 161.021 19.8835 156.376 19.8835C151.795 19.8835 148.354 22.4616 148.365 26.3182C148.365 29.4503 150.592 31.2507 154.182 32.1776L156.664 32.8168C159.018 33.4134 160.574 34.1484 160.584 35.8423C160.574 37.7067 158.805 38.9531 156.227 38.9531C153.756 38.9531 151.838 37.8452 151.678 35.5547H147.79C147.95 39.8906 151.178 42.3303 156.259 42.3303C161.49 42.3303 164.526 39.7202 164.537 35.8743C164.526 32.0923 161.405 30.3665 158.124 29.5888L156.078 29.0774C154.288 28.6513 152.349 27.8949 152.371 26.0732C152.381 24.4325 153.852 23.2287 156.323 23.2287C158.678 23.2287 160.233 24.326 160.435 26.1797ZM175.728 25.6364H172.5V21.7159H168.643V25.6364H166.321V28.6193H168.643V37.7173C168.622 40.7962 170.859 42.3089 173.757 42.2237C174.854 42.1918 175.611 41.9787 176.026 41.8402L175.376 38.8253C175.163 38.8786 174.726 38.9744 174.247 38.9744C173.278 38.9744 172.5 38.6335 172.5 37.0781V28.6193H175.728V25.6364ZM185.582 42.3196C190.376 42.3196 193.423 38.9425 193.423 33.8821C193.423 28.8111 190.376 25.4233 185.582 25.4233C180.788 25.4233 177.741 28.8111 177.741 33.8821C177.741 38.9425 180.788 42.3196 185.582 42.3196ZM185.603 39.2301C182.95 39.2301 181.651 36.8651 181.651 33.8714C181.651 30.8778 182.95 28.4808 185.603 28.4808C188.213 28.4808 189.513 30.8778 189.513 33.8714C189.513 36.8651 188.213 39.2301 185.603 39.2301ZM203.5 42.3196C207.613 42.3196 210.233 39.88 210.51 36.407H206.824C206.494 38.1648 205.226 39.1768 203.532 39.1768C201.125 39.1768 199.569 37.1634 199.569 33.8182C199.569 30.5156 201.157 28.5341 203.532 28.5341C205.386 28.5341 206.526 29.7273 206.824 31.304H210.51C210.244 27.7564 207.474 25.4233 203.479 25.4233C198.685 25.4233 195.66 28.8857 195.66 33.8821C195.66 38.8359 198.611 42.3196 203.5 42.3196ZM213.344 42H217.2V36.5028L218.607 35.0007L223.614 42H228.227L221.515 32.6996L227.854 25.6364H223.347L217.467 32.2095H217.2V20.1818H213.344V42ZM243.024 29.9616C242.491 27.1918 240.275 25.4233 236.44 25.4233C232.498 25.4233 229.814 27.3622 229.824 30.3878C229.814 32.7741 231.284 34.3509 234.427 35.0007L237.218 35.5866C238.72 35.9169 239.423 36.5241 239.423 37.451C239.423 38.5696 238.208 39.4112 236.376 39.4112C234.608 39.4112 233.457 38.6442 233.127 37.174L229.366 37.5362C229.846 40.5405 232.37 42.3196 236.387 42.3196C240.478 42.3196 243.365 40.1996 243.375 37.0994C243.365 34.7663 241.863 33.3388 238.773 32.6676L235.982 32.071C234.32 31.6982 233.659 31.1229 233.67 30.1747C233.659 29.0668 234.885 28.2997 236.493 28.2997C238.272 28.2997 239.21 29.2692 239.508 30.3452L243.024 29.9616Z" fill="black"/>
<path d="M87.067 51.149H73.9425V57.2795H87.067V51.149Z" fill="#6C99B7"/>
<path d="M87.067 51.149H73.9425V52.5319H87.067V51.149Z" fill="#6192AD"/>
<path d="M108.141 10.1717H52.8594C51.2802 10.1717 50 11.4099 50 12.9373V48.9642C50 50.4916 51.2802 51.7298 52.8594 51.7298H108.141C109.72 51.7298 111 50.4916 111 48.9642V12.9373C111 11.4099 109.72 10.1717 108.141 10.1717Z" fill="#7CA3C2"/>
<path d="M107.188 48.0424V13.8592L53.8125 13.8592V48.0424H107.188Z" fill="white"/>
<path d="M53.8125 13.8592V48.0424H107.188V13.8592H53.8125ZM106.33 47.2127H54.6703V14.6889H106.33V47.2127Z" fill="#F4F2F2"/>
<path d="M92.7858 58.8283H68.2142C68.2092 58.4196 68.288 58.0141 68.4462 57.6351C68.6044 57.2562 68.8388 56.9114 69.1358 56.6207C69.4328 56.33 69.7865 56.0992 70.1764 55.9417C70.5663 55.7842 70.9847 55.7031 71.4072 55.7031H89.5928C90.4396 55.7031 91.2518 56.0285 91.8506 56.6077C92.4494 57.1868 92.7858 57.9723 92.7858 58.7914V58.8283Z" fill="#7CA3C2"/>
<path d="M65.4311 38.3903H61.0944V43.562H65.4311V38.3903Z" fill="#D82B5D"/>
<path d="M74.0473 33.2186H69.7106V43.562H74.0473V33.2186Z" fill="#F0BB73"/>
<path d="M82.6636 35.5878H78.3269V43.562H82.6636V35.5878Z" fill="#365470"/>
<path d="M91.2894 30.4069H86.9526V43.562H91.2894V30.4069Z" fill="#EE9156"/>
<path d="M99.9056 26.6917H95.5688V43.562H99.9056V26.6917Z" fill="#95CEBE"/>
<path d="M99.0097 21.4186C98.9863 21.3574 98.9495 21.3017 98.9018 21.2556C98.8541 21.2094 98.7966 21.1738 98.7333 21.1512L96.4172 20.2294C96.2983 20.1837 96.1656 20.1852 96.0478 20.2335C95.9301 20.2818 95.8368 20.3731 95.7881 20.4875C95.7438 20.6014 95.7468 20.7274 95.7966 20.8392C95.8464 20.9509 95.939 21.0396 96.055 21.0867L97.2559 21.5569L88.9447 24.6451C88.9001 24.6642 88.8585 24.689 88.8208 24.7189L80.4142 31.3933L72.0458 28.3326C71.9759 28.3056 71.9002 28.2957 71.8253 28.3037C71.7505 28.3117 71.6789 28.3375 71.6169 28.3787L63.0387 33.91C62.986 33.9426 62.9406 33.9852 62.9052 34.0351C62.8698 34.085 62.8451 34.1414 62.8327 34.2007C62.8202 34.26 62.8203 34.3212 62.8327 34.3805C62.8452 34.4399 62.8699 34.4962 62.9053 34.5461C62.9466 34.6098 63.0044 34.662 63.0729 34.6975C63.1414 34.7331 63.2183 34.7508 63.2961 34.7489C63.3909 34.7529 63.4846 34.727 63.563 34.6751L71.9219 29.3006L80.3189 32.3612C80.3961 32.3923 80.4808 32.4019 80.5633 32.3889C80.6458 32.3758 80.723 32.3407 80.7859 32.2875L89.364 25.5025L97.6562 22.4326L97.0844 23.5666C97.0554 23.6208 97.0381 23.6801 97.0334 23.741C97.0288 23.8018 97.037 23.863 97.0575 23.9207C97.078 23.9784 97.1103 24.0315 97.1526 24.0768C97.1949 24.1221 97.2463 24.1586 97.3036 24.1842C97.3664 24.2124 97.4345 24.2281 97.5037 24.2303C97.5931 24.2305 97.6806 24.2064 97.7565 24.1607C97.8323 24.1151 97.8933 24.0498 97.9326 23.9722L99.0383 21.7873C99.0619 21.7276 99.0716 21.6636 99.0667 21.5999C99.0617 21.5361 99.0423 21.4742 99.0097 21.4186V21.4186Z" fill="#E9E9E9"/>
</svg>
