<svg width="321" height="106" viewBox="0 0 321 106" fill="none" xmlns="http://www.w3.org/2000/svg">
<rect x="100" width="221" height="106" fill="#3DB3C6"/>
<rect x="1" y="1" width="98" height="104" fill="#3DB3C6" fill-opacity="0.11" stroke="black" stroke-width="2"/>
<path d="M125.406 21.9876H130.973V37H134.772V21.9876H140.339V18.8182H125.406V21.9876ZM146.577 37.2663C150.714 37.2663 153.289 34.4343 153.289 30.2351C153.289 26.0092 150.714 23.1861 146.577 23.1861C142.44 23.1861 139.866 26.0092 139.866 30.2351C139.866 34.4343 142.44 37.2663 146.577 37.2663ZM146.595 34.3366C144.686 34.3366 143.71 32.5877 143.71 30.2085C143.71 27.8292 144.686 26.0714 146.595 26.0714C148.468 26.0714 149.445 27.8292 149.445 30.2085C149.445 32.5877 148.468 34.3366 146.595 34.3366ZM162.668 23.3636H160.102V20.0966H156.32V23.3636H154.456V26.2045H156.32V33.3068C156.302 35.979 158.122 37.3018 160.866 37.1864C161.842 37.1509 162.535 36.9556 162.916 36.8313L162.322 34.017C162.135 34.0526 161.736 34.1413 161.381 34.1413C160.626 34.1413 160.102 33.8572 160.102 32.8097V26.2045H162.668V23.3636ZM168.687 37.2575C170.702 37.2575 172.007 36.3786 172.673 35.109H172.779V37H176.366V27.8026C176.366 24.5533 173.614 23.1861 170.578 23.1861C167.311 23.1861 165.162 24.7486 164.638 27.2344L168.136 27.5185C168.394 26.6129 169.202 25.9471 170.56 25.9471C171.847 25.9471 172.584 26.5952 172.584 27.7138V27.767C172.584 28.646 171.652 28.7614 169.281 28.9922C166.583 29.2408 164.159 30.1463 164.159 33.1914C164.159 35.8903 166.085 37.2575 168.687 37.2575ZM169.77 34.6474C168.607 34.6474 167.772 34.1058 167.772 33.0671C167.772 32.0018 168.651 31.478 169.983 31.2915C170.808 31.1761 172.158 30.9808 172.611 30.679V32.1261C172.611 33.5554 171.43 34.6474 169.77 34.6474ZM182.749 18.8182H178.967V37H182.749V18.8182ZM190.898 42.1136H194.68V34.8161H194.795C195.319 35.9524 196.464 37.2219 198.666 37.2219C201.773 37.2219 204.197 34.7628 204.197 30.1996C204.197 25.5121 201.667 23.1861 198.675 23.1861C196.393 23.1861 195.301 24.5444 194.795 25.6541H194.626V23.3636H190.898V42.1136ZM194.6 30.1818C194.6 27.7493 195.63 26.1957 197.467 26.1957C199.341 26.1957 200.335 27.8203 200.335 30.1818C200.335 32.5611 199.323 34.2124 197.467 34.2124C195.647 34.2124 194.6 32.6143 194.6 30.1818ZM215.129 31.1939C215.138 33.0227 213.886 33.9815 212.528 33.9815C211.099 33.9815 210.176 32.9783 210.167 31.3714V23.3636H206.385V32.0462C206.394 35.2333 208.258 37.1776 211.001 37.1776C213.052 37.1776 214.526 36.1211 215.138 34.5231H215.28V37H218.911V23.3636H215.129V31.1939ZM221.603 37H225.385V29.2852C225.385 27.6072 226.61 26.4531 228.279 26.4531C228.803 26.4531 229.522 26.5419 229.877 26.6573V23.3015C229.54 23.2216 229.069 23.1683 228.688 23.1683C227.161 23.1683 225.909 24.0561 225.412 25.7429H225.27V23.3636H221.603V37ZM237.026 37.2663C240.657 37.2663 242.938 35.1357 243.116 32.0018H239.547C239.325 33.4577 238.366 34.2745 237.07 34.2745C235.303 34.2745 234.158 32.7919 234.158 30.1818C234.158 27.6072 235.312 26.1335 237.07 26.1335C238.455 26.1335 239.343 27.0479 239.547 28.4062H243.116C242.956 25.2546 240.568 23.1861 237.008 23.1861C232.871 23.1861 230.314 26.0536 230.314 30.2351C230.314 34.381 232.827 37.2663 237.026 37.2663ZM248.986 29.1165C248.995 27.3587 250.069 26.3288 251.614 26.3288C253.15 26.3288 254.055 27.3143 254.046 28.9922V37H257.828V28.3175C257.837 25.1214 255.955 23.1861 253.114 23.1861C251.046 23.1861 249.661 24.1626 249.039 25.7695H248.879V18.8182H245.204V37H248.986V29.1165ZM264.36 37.2575C266.375 37.2575 267.68 36.3786 268.346 35.109H268.452V37H272.039V27.8026C272.039 24.5533 269.287 23.1861 266.251 23.1861C262.984 23.1861 260.835 24.7486 260.311 27.2344L263.809 27.5185C264.067 26.6129 264.875 25.9471 266.233 25.9471C267.52 25.9471 268.257 26.5952 268.257 27.7138V27.767C268.257 28.646 267.325 28.7614 264.955 28.9922C262.256 29.2408 259.832 30.1463 259.832 33.1914C259.832 35.8903 261.759 37.2575 264.36 37.2575ZM265.443 34.6474C264.28 34.6474 263.445 34.1058 263.445 33.0671C263.445 32.0018 264.324 31.478 265.656 31.2915C266.482 31.1761 267.831 30.9808 268.284 30.679V32.1261C268.284 33.5554 267.103 34.6474 265.443 34.6474ZM285.986 27.2521C285.648 24.7397 283.624 23.1861 280.18 23.1861C276.691 23.1861 274.391 24.8018 274.4 27.4297C274.391 29.4716 275.679 30.7944 278.342 31.3271L280.704 31.7976C281.893 32.0373 282.435 32.4723 282.452 33.1559C282.435 33.9638 281.556 34.5408 280.233 34.5408C278.884 34.5408 277.987 33.9638 277.756 32.854L274.036 33.0494C274.391 35.6594 276.611 37.2663 280.224 37.2663C283.757 37.2663 286.288 35.4641 286.297 32.7741C286.288 30.8033 285 29.6225 282.355 29.081L279.887 28.5838C278.617 28.3086 278.147 27.8736 278.156 27.2166C278.147 26.3999 279.07 25.8672 280.242 25.8672C281.556 25.8672 282.337 26.5863 282.523 27.4652L285.986 27.2521ZM294.559 37.2663C297.933 37.2663 300.205 35.6239 300.738 33.0938L297.24 32.8629C296.859 33.9016 295.882 34.4432 294.621 34.4432C292.73 34.4432 291.532 33.1914 291.532 31.1584V31.1495H300.818V30.1108C300.818 25.4766 298.013 23.1861 294.408 23.1861C290.395 23.1861 287.794 26.0359 287.794 30.244C287.794 34.5675 290.36 37.2663 294.559 37.2663ZM291.532 28.8058C291.612 27.2521 292.792 26.0092 294.47 26.0092C296.113 26.0092 297.249 27.1811 297.258 28.8058H291.532ZM314.299 27.2521C313.961 24.7397 311.937 23.1861 308.493 23.1861C305.004 23.1861 302.704 24.8018 302.713 27.4297C302.704 29.4716 303.991 30.7944 306.655 31.3271L309.016 31.7976C310.206 32.0373 310.747 32.4723 310.765 33.1559C310.747 33.9638 309.869 34.5408 308.546 34.5408C307.196 34.5408 306.3 33.9638 306.069 32.854L302.349 33.0494C302.704 35.6594 304.924 37.2663 308.537 37.2663C312.07 37.2663 314.6 35.4641 314.609 32.7741C314.6 30.8033 313.313 29.6225 310.668 29.081L308.2 28.5838C306.93 28.3086 306.459 27.8736 306.468 27.2166C306.459 26.3999 307.383 25.8672 308.555 25.8672C309.869 25.8672 310.65 26.5863 310.836 27.4652L314.299 27.2521Z" fill="white"/>
<path d="M72.8994 39.5258H18.5127C18.5127 43.1625 15.209 46.1164 11.1416 46.1164V66.5859C15.209 66.5859 18.5127 69.5399 18.5127 73.1766H72.8994C72.8994 69.5399 76.2031 66.5859 80.2705 66.5859V46.1164C76.2031 46.1164 72.8994 43.1625 72.8994 39.5258ZM45.7227 64.6711C40.5762 64.6711 36.4258 60.9453 36.4258 56.3586C36.4258 51.7719 40.5928 48.0461 45.7227 48.0461C50.8525 48.0461 55.0195 51.7719 55.0195 56.3586C55.0195 60.9453 50.8525 64.6711 45.7227 64.6711Z" fill="#39B54A"/>
<path d="M45.7227 63.7805C41.9873 63.7359 38.75 61.5391 37.7041 58.3328C36.6582 55.1117 38.3516 51.6531 41.5225 49.9461C44.7432 48.2094 48.9434 48.7883 51.583 51.1039C54.2725 53.4492 54.7207 57.2195 52.8779 60.0992C51.4336 62.4 48.6279 63.7508 45.7227 63.7805C44.4443 63.7953 44.4443 65.5766 45.7227 65.5617C49.5244 65.5172 53.0107 63.6617 54.8203 60.6633C56.6465 57.65 56.3145 53.85 54.1397 51.0594C51.9316 48.2539 48.0967 46.7844 44.3115 47.2445C40.5264 47.7047 37.4551 50.0203 36.0772 53.1523C34.8486 55.9281 35.4131 59.2234 37.3057 61.6578C39.2315 64.107 42.3858 65.532 45.7227 65.5617C47.001 65.5766 47.001 63.7953 45.7227 63.7805Z" fill="black"/>
<path d="M72.8994 38.6352C66.3418 38.6352 59.8008 38.6352 53.2432 38.6352C43.332 38.6352 33.4209 38.6352 23.5098 38.6352C21.8496 38.6352 20.1729 38.6352 18.5127 38.6352C17.9648 38.6352 17.5166 39.0359 17.5166 39.5258C17.4668 42.6727 14.6611 45.1813 11.1582 45.2258C10.6104 45.2258 10.1621 45.6266 10.1621 46.1164C10.1621 52.9149 10.1621 59.7133 10.1621 66.5266C10.1621 66.5563 10.1621 66.5711 10.1621 66.6008C10.1621 67.0906 10.6104 67.4914 11.1582 67.4914C14.6777 67.536 17.4834 70.0445 17.5332 73.1914C17.5332 73.6813 17.9814 74.082 18.5293 74.082C25.0869 74.082 31.6279 74.082 38.1855 74.082C48.0967 74.082 58.0078 74.082 67.9189 74.082C69.5791 74.082 71.2559 74.082 72.916 74.082C73.4639 74.082 73.9121 73.6813 73.9121 73.1914C73.9619 70.0445 76.7676 67.536 80.2871 67.4914C80.835 67.4914 81.2832 67.0906 81.2832 66.6008C81.2832 59.8024 81.2832 53.0039 81.2832 46.1906C81.2832 46.1609 81.2832 46.1461 81.2832 46.1164C81.2832 45.6266 80.835 45.2258 80.2871 45.2258C76.7676 45.1813 73.9619 42.6727 73.9121 39.5258C73.8955 38.3828 71.9033 38.3828 71.9199 39.5258C71.9863 43.6375 75.6885 46.9477 80.2871 47.007C79.9551 46.7102 79.623 46.4133 79.291 46.1164C79.291 52.9149 79.291 59.7133 79.291 66.5266C79.291 66.5563 79.291 66.5711 79.291 66.6008C79.623 66.3039 79.9551 66.007 80.2871 65.7102C75.6885 65.7695 71.9863 69.0797 71.9199 73.1914C72.252 72.8945 72.584 72.5977 72.916 72.3008C66.3584 72.3008 59.8174 72.3008 53.2598 72.3008C43.3486 72.3008 33.4375 72.3008 23.5264 72.3008C21.8662 72.3008 20.1895 72.3008 18.5293 72.3008C18.8613 72.5977 19.1934 72.8945 19.5254 73.1914C19.459 69.0797 15.7734 65.7695 11.1582 65.7102C11.4902 66.007 11.8223 66.3039 12.1543 66.6008C12.1543 59.8024 12.1543 53.0039 12.1543 46.1906C12.1543 46.1609 12.1543 46.1461 12.1543 46.1164C11.8223 46.4133 11.4902 46.7102 11.1582 47.007C15.7568 46.9477 19.459 43.6375 19.5254 39.5258C19.1934 39.8227 18.8613 40.1195 18.5293 40.4164C25.0869 40.4164 31.6279 40.4164 38.1855 40.4164C48.0967 40.4164 58.0078 40.4164 67.9189 40.4164C69.5791 40.4164 71.2559 40.4164 72.916 40.4164C74.1943 40.4164 74.1943 38.6352 72.8994 38.6352Z" fill="#006838"/>
<path d="M18.5127 73.1766H16.1387C13.3828 73.1766 11.1582 71.1727 11.1582 68.7234V66.5859C15.2256 66.5859 18.5127 69.5398 18.5127 73.1766Z" fill="#006838"/>
<path d="M18.5127 72.2859C16.6533 72.2859 14.7773 72.4937 13.2998 71.2469C11.8555 70.0148 12.1377 68.2039 12.1377 66.5859C11.8057 66.8828 11.4736 67.1797 11.1416 67.4766C14.6611 67.5211 17.4668 70.0297 17.5166 73.1766C17.5332 74.3195 19.5254 74.3195 19.5088 73.1766C19.4424 69.0648 15.7568 65.7547 11.1416 65.6953C10.5937 65.6953 10.1455 66.1109 10.1455 66.5859C10.1455 67.2984 10.1455 67.9961 10.1455 68.7086C10.1455 70.1484 10.793 71.4695 11.9053 72.5086C13.6982 74.1859 16.1387 74.082 18.5127 74.082C19.8076 74.0672 19.8076 72.2859 18.5127 72.2859Z" fill="#006838"/>
<path d="M18.5127 39.5258C18.5127 43.1625 15.209 46.1164 11.1416 46.1164V43.9789C11.1416 41.5148 13.3662 39.5258 16.1221 39.5258H18.5127Z" fill="#006838"/>
<path d="M17.5166 39.5258C17.4668 42.6727 14.6611 45.1813 11.1582 45.2258C11.4902 45.5227 11.8223 45.8195 12.1543 46.1164C12.1543 44.4539 11.9219 42.7766 13.3164 41.4555C14.6943 40.1641 16.7197 40.4164 18.5293 40.4164C19.8076 40.4164 19.8076 38.6352 18.5293 38.6352C17.7324 38.6352 16.9521 38.6352 16.1553 38.6352C14.5449 38.6352 13.0674 39.2141 11.9053 40.2086C10.0293 41.8117 10.1621 43.9938 10.1621 46.1164C10.1621 46.5914 10.6104 47.007 11.1582 47.007C15.7568 46.9477 19.459 43.6375 19.5254 39.5258C19.542 38.3828 17.5498 38.3828 17.5166 39.5258Z" fill="#006838"/>
<path d="M80.2705 43.9938V46.1313C76.2031 46.1313 72.8994 43.1774 72.8994 39.5406H75.29C78.0459 39.5258 80.2705 41.5297 80.2705 43.9938Z" fill="#006838"/>
<path d="M79.2744 43.9938C79.2744 44.7063 79.2744 45.4188 79.2744 46.1313C79.6064 45.8344 79.9385 45.5375 80.2705 45.2406C76.751 45.1961 73.9453 42.6875 73.8955 39.5406C73.5635 39.8375 73.2314 40.1344 72.8994 40.4313C73.9453 40.4313 75.0908 40.3273 76.1367 40.5055C77.9795 40.832 79.2412 42.3313 79.2744 43.9938C79.3076 45.1367 81.2998 45.1367 81.2666 43.9938C81.2168 41.8117 79.7725 39.8375 77.4814 39.0211C76.0205 38.5016 74.4268 38.6352 72.8994 38.6352C72.3682 38.6352 71.9033 39.0359 71.9033 39.5258C71.9697 43.6375 75.6719 46.9477 80.2705 47.007C80.8184 47.007 81.2666 46.5914 81.2666 46.1164C81.2666 45.4039 81.2666 44.6914 81.2666 43.9789C81.2666 42.8359 79.2744 42.8359 79.2744 43.9938Z" fill="#006838"/>
<path d="M80.2705 66.5859V68.7234C80.2705 71.1875 78.0293 73.1766 75.29 73.1766H72.8994C72.8994 69.5398 76.2031 66.5859 80.2705 66.5859Z" fill="#006838"/>
<path d="M79.2744 66.5859C79.2744 68.2484 79.5068 69.9258 78.1123 71.2469C76.7344 72.5383 74.709 72.2859 72.8994 72.2859C73.2314 72.5828 73.5635 72.8797 73.8955 73.1766C73.9453 70.0297 76.751 67.5211 80.2705 67.4766C81.5488 67.4617 81.5488 65.6805 80.2705 65.6953C75.6719 65.7547 71.9697 69.0648 71.9033 73.1766C71.9033 73.6664 72.3682 74.0672 72.8994 74.0672C73.6963 74.0672 74.4766 74.0672 75.2734 74.0672C76.8838 74.0672 78.3613 73.4883 79.5234 72.4938C81.3994 70.8906 81.2832 68.7086 81.2832 66.5859C81.2666 65.443 79.2744 65.443 79.2744 66.5859Z" fill="#006838"/>
<path d="M16.9189 35.0578C22.7959 35.0578 28.6729 35.0578 34.5332 35.0578C45.1416 35.0578 55.75 35.0578 66.3584 35.0578C70.1436 35.0578 73.9453 35.0578 77.7305 35.0578C80.1543 35.0578 83.0098 34.657 84.5039 36.8242C85.1846 37.8039 85.0518 38.9766 85.0518 40.075C85.0518 41.7375 85.0518 43.4149 85.0518 45.0774C85.0518 49.8125 85.0518 54.5328 85.0518 59.268C85.0518 62.118 85.0518 64.968 85.0518 67.818C85.0518 68.961 87.0439 68.961 87.0439 67.818C87.0439 60.5 87.0439 53.1672 87.0439 45.8492C87.0439 44.068 87.0439 42.3016 87.0439 40.5203C87.0439 39.6149 87.127 38.6797 86.9609 37.7891C86.4961 35.1766 83.9229 33.2766 80.9844 33.2766C80.3369 33.2766 79.6728 33.2766 79.0254 33.2766C70.5586 33.2766 62.0918 33.2766 53.625 33.2766C43.6807 33.2766 33.7529 33.2766 23.8086 33.2766C21.5176 33.2766 19.2266 33.2766 16.9189 33.2766C15.624 33.2766 15.624 35.0578 16.9189 35.0578Z" fill="#006838"/>
<path d="M22.7295 29.7141C28.6064 29.7141 34.4834 29.7141 40.3438 29.7141C50.9522 29.7141 61.5606 29.7141 72.1689 29.7141C75.9541 29.7141 79.7559 29.7141 83.541 29.7141C85.9649 29.7141 88.8203 29.3133 90.3145 31.4805C90.9951 32.4602 90.8623 33.6328 90.8623 34.7313C90.8623 36.3938 90.8623 38.0711 90.8623 39.7336C90.8623 44.4688 90.8623 49.1891 90.8623 53.9242C90.8623 56.7742 90.8623 59.6242 90.8623 62.4742C90.8623 63.6172 92.8545 63.6172 92.8545 62.4742C92.8545 55.1562 92.8545 47.8234 92.8545 40.5055C92.8545 38.7242 92.8545 36.9578 92.8545 35.1766C92.8545 34.2711 92.9375 33.3359 92.7715 32.4453C92.3066 29.8328 89.7334 27.9328 86.7949 27.9328C86.1475 27.9328 85.4834 27.9328 84.8359 27.9328C76.3691 27.9328 67.9023 27.9328 59.4356 27.9328C49.4912 27.9328 39.5635 27.9328 29.6191 27.9328C27.3281 27.9328 25.0371 27.9328 22.7295 27.9328C21.4346 27.9328 21.4346 29.7141 22.7295 29.7141Z" fill="#006838"/>
<path d="M55.0196 56.3586C55.0196 60.9453 50.8526 64.6711 45.7227 64.6711C40.5762 64.6711 36.4258 60.9453 36.4258 56.3586C36.4258 51.7719 40.5928 48.0461 45.7227 48.0461C50.8526 48.0313 55.0196 51.757 55.0196 56.3586Z" fill="#006838"/>
<path d="M54.0235 56.3586C53.9737 59.6984 51.5166 62.593 47.9307 63.5133C44.3282 64.4484 40.46 62.9344 38.5508 60.0992C36.6084 57.2195 37.2559 53.4641 39.8457 51.1039C42.4688 48.6992 46.6856 48.2984 49.9063 49.9461C52.4629 51.2524 53.9903 53.7461 54.0235 56.3586C54.0401 57.5016 56.0323 57.5016 56.0157 56.3586C55.9659 52.9594 53.8907 49.8422 50.5371 48.2242C47.167 46.5914 42.917 46.8883 39.7959 48.8328C36.6582 50.807 35.0147 54.2359 35.5293 57.6203C36.044 61.0047 38.6338 63.7508 42.1367 64.9828C45.2412 66.0813 48.9268 65.5766 51.6494 63.8844C54.3887 62.1625 55.9825 59.3422 56.0157 56.3586C56.0323 55.2008 54.0401 55.2008 54.0235 56.3586Z" fill="#006838"/>
</svg>
